<?xml version="1.0" encoding="utf-8"?>
<!-- Generator: Adobe Illustrator 19.1.1, SVG Export Plug-In . SVG Version: 6.00 Build 0)  -->
<svg version="1.1" id="Calque_1" xmlns="http://www.w3.org/2000/svg" xmlns:xlink="http://www.w3.org/1999/xlink" x="0px" y="0px"
	 viewBox="0 0 200 200" style="enable-background:new 0 0 200 200;" xml:space="preserve">
<style type="text/css">

	.st4{fill:white;}
</style>

<path class="st4" d="M100,43.6c-31.2,0-56.4,25.3-56.4,56.4s25.3,56.4,56.4,56.4s56.4-25.3,56.4-56.4S131.2,43.6,100,43.6z
	 M138,122.3c0,0-27.8-1.3-38.5,4.2C88.8,121,61,122.3,61,122.3V81.2h3.9l0.4,29.7l1.8-39c2.7-0.3,24.4-1.9,32.3,5.3
	c7.9-7.2,29.6-5.5,32.3-5.3l0.4,41.2l1.8-31.9h3.9v41.1H138z"/>
</svg>
