<?xml version="1.0" encoding="utf-8"?>
<!-- Generator: Adobe Illustrator 19.1.1, SVG Export Plug-In . SVG Version: 6.00 Build 0)  -->
<svg version="1.1" id="Calque_1" xmlns="http://www.w3.org/2000/svg" xmlns:xlink="http://www.w3.org/1999/xlink" x="0px" y="0px"
	 viewBox="0 0 200 200" style="enable-background:new 0 0 200 200;" xml:space="preserve">
<style type="text/css">

	.st5{fill:white;}
</style>

<g>
	<path class="st5" d="M96.2,111.1l1.6,1.3c0.9-1.1,1.8-2.4,2.6-3.7l-1.7-1.1C97.8,108.9,97,110.1,96.2,111.1z"/>
	<path class="st5" d="M104,95.6l1.9,0.7c0.5-1.4,1.1-2.7,1.8-3.9l-1.8-0.9C105.2,92.8,104.6,94.2,104,95.6z"/>
	<path class="st5" d="M89.8,116.5l0.9,1.8c1.3-0.7,2.6-1.6,3.9-2.6l-1.3-1.5C92.1,115.1,90.9,115.9,89.8,116.5z"/>
	<path class="st5" d="M65.1,92.5h-2c0,1.6,0,3.1,0.1,4.5l2-0.1C65.1,95.4,65.1,94,65.1,92.5z"/>
	<path class="st5" d="M100.7,103.8l1.8,0.9c0.6-1.3,1.2-2.7,1.8-4.1l-1.9-0.8C101.9,101.2,101.3,102.5,100.7,103.8z"/>
	<path class="st5" d="M72.7,117.2c1.3,0.9,2.7,1.6,4.2,2.1l0.6-1.9c-1.3-0.4-2.6-1-3.7-1.8L72.7,117.2z"/>
	<path class="st5" d="M65.7,101.1l-2,0.4c0.3,1.6,0.6,3,1.1,4.4l1.9-0.6C66.4,104,66,102.6,65.7,101.1z"/>
	<path class="st5" d="M66.6,110.2c0.8,1.4,1.6,2.7,2.6,3.9l1.5-1.3c-0.9-1-1.7-2.2-2.4-3.5L66.6,110.2z"/>
	<path class="st5" d="M81.7,118.1l-0.1,2c1.6,0.1,3.2,0,4.7-0.3l-0.4-2C84.5,118.1,83.1,118.2,81.7,118.1z"/>
	<path class="st5" d="M134.2,113.5c-0.1,0.5-0.2,0.9-0.4,1.4l2,0.5c0.1-0.5,0.2-0.9,0.4-1.4c0.3-1,0.5-2,0.7-2.9l-2-0.5
		C134.7,111.6,134.4,112.6,134.2,113.5z"/>
	<path class="st5" d="M135.9,106.3L135.9,106.3l2,0.5v-0.1c0.3-1.6,0.5-3,0.6-4.4l-2-0.2C136.4,103.4,136.2,104.7,135.9,106.3z"/>
	<path class="st5" d="M108.3,87.6l1.6,1.2c0.9-1.2,1.9-2.2,2.9-3.1l-1.3-1.5C110.4,85.1,109.3,86.3,108.3,87.6z"/>
	<path class="st5" d="M100,43.6c-31.2,0-56.4,25.3-56.4,56.4s25.3,56.4,56.4,56.4s56.4-25.3,56.4-56.4S131.2,43.6,100,43.6z
		 M143.4,116c-0.6,2.5-1.3,5-1.8,7.5l-7.3-1.4c0.1-0.7,0.3-1.4,0.5-2.2l-2-0.4c-0.2,0.8-0.3,1.5-0.5,2.3l-7.3-1.4
		c0.6-3,1.3-5.8,2-8.5c2.3-8.7,3.4-13.9,0.3-18.4c-1.6-2.4-4.9-3.7-7.9-3.1c-4.2,0.8-5.8,5-6.5,8.3c-2.1,10.9-6.7,19-13.6,24
		c-6.2,4.5-13.9,6.1-21.7,4.6c-7.6-1.5-14.2-7.8-18.3-17.4c-3.4-8.1-4.6-17.7-3-25.5l8.3,1.6l-1-0.1c-0.1,0.8-0.2,1.5-0.2,2.3l2,0.2
		c0.1-0.7,0.1-1.4,0.2-2.2l7.3,1.4c-0.9,4.6-0.1,10.6,2,15.7c2.1,5,4.7,7.1,5.9,7.4c2.3,0.4,5.6,0.5,8.5-1.6c3.3-2.4,5.7-7,6.9-13.5
		c2.2-11.5,9.6-19.6,19.7-21.7c9.7-2,19.9,2.1,25.3,10.2c5.6,8.3,5.4,16.6,3.9,24.3C144.7,110.8,144,113.4,143.4,116z"/>
	<path class="st5" d="M135.8,93.7c0.4,1.3,0.7,2.7,0.8,4.1l2-0.2c-0.1-1.6-0.4-3.1-0.9-4.6L135.8,93.7z"/>
	<path class="st5" d="M135.7,88.8c-0.2-0.3-0.4-0.6-0.6-0.9c-0.7-1-1.5-1.9-2.3-2.8l-1.4,1.4c0.8,0.8,1.4,1.6,2,2.5
		c0.2,0.3,0.4,0.5,0.5,0.8L135.7,88.8z"/>
	<path class="st5" d="M115.4,81.6l0.8,1.8c1.3-0.6,2.6-1,3.9-1.1l-0.2-2C118.4,80.5,116.9,81,115.4,81.6z"/>
	<path class="st5" d="M124.3,82.6c1.3,0.3,2.6,0.8,3.8,1.5l1-1.8c-1.4-0.8-2.9-1.4-4.4-1.7L124.3,82.6z"/>
</g>
</svg>
