<?xml version="1.0" encoding="utf-8"?>
<!-- Generator: Adobe Illustrator 19.1.1, SVG Export Plug-In . SVG Version: 6.00 Build 0)  -->
<svg version="1.1" id="Calque_1" xmlns="http://www.w3.org/2000/svg" xmlns:xlink="http://www.w3.org/1999/xlink" x="0px" y="0px"
	 viewBox="0 0 200 200" style="enable-background:new 0 0 200 200;" xml:space="preserve">
<style type="text/css">

	.st4{fill:white;}
</style>

<path class="st4" d="M100,43c-31.5,0-57,25.5-57,57s25.5,57,57,57s57-25.5,57-57S131.5,43,100,43z M118.7,115.4c-2.3,2.1-5,3-8,3.1
	c-3.4,0.1-6.5-0.8-9.1-3c-3.7-3.2-3.9-8.3-0.4-11.7c2.9-2.9,6.5-3.8,10.5-3.4l0,0c1.8,0.2,3.4-1.2,3.4-3V78.9c-0.1,0-0.1,0-0.2,0
	c-8.2,2-16.4,3.9-24.7,5.9c-0.5,0.1-0.6,0.3-0.6,0.8c0,11.7,0,23.4,0,35c0,0.9-0.2,1.8-0.5,2.7c-1.1,2.9-3.3,4.7-6.1,5.7
	c-1.1,0.4-2.3,0.6-3.5,0.8c-0.2,0-0.4,0.1-0.6,0.1h-1.2c-0.2,0-0.4,0-0.7-0.1c-0.1,0-0.1,0-0.2,0c-2.7-0.3-5.2-1.3-7.2-3.1
	c-3.2-3-3.6-7.5-0.8-10.9c2.8-3.4,6.6-4.4,10.9-4.1c0.1,0,0.2,0,0.3,0c1.8,0.2,3.4-1.2,3.4-3V82.4c0-4.1,2.8-7.7,6.8-8.7
	c0.2,0,0.3-0.1,0.5-0.1c8.8-2.1,17.6-4.2,26.4-6.3c0.3-0.1,0.5-0.1,0.8-0.2c1.9-0.5,3.8,1,3.8,3c0,13,0,25.9,0,38.9
	C121.6,111.6,120.6,113.7,118.7,115.4z"/>
</svg>
