<?xml version="1.0" encoding="utf-8"?>
<?xml-stylesheet type="text/css" href="../main.css"?>

<svg version="1.1" id="contact_svg" xmlns="http://www.w3.org/2000/svg" xmlns:xlink="http://www.w3.org/1999/xlink" x="0px" y="0px"
	 viewBox="0 0 200 200" style="enable-background:new 0 0 200 200;" xml:space="preserve">
	 <style type="text/css">
.monfill {
	fill:white;
}
</style>


<path class="monfill" d="M100,42.8c-31.6,0-57.2,25.6-57.2,57.2s25.6,57.2,57.2,57.2s57.2-25.6,57.2-57.2S131.6,42.8,100,42.8z
	 M134.7,78.3l-32.9,24.2c-1,0.7-2.6,0.7-3.6,0L65.3,78.2L134.7,78.3z M65.2,117.5V80.9l23.5,17.3l-22.9,21.3
	C65.4,119,65.2,118.3,65.2,117.5z M130.1,121.8H70c-0.7,0-1.4-0.1-2-0.4l23-21.5l9,6.7l9.2-6.8l23,21.5
	C131.6,121.6,130.9,121.8,130.1,121.8z M134.8,117.5c0,0.7-0.3,1.4-0.6,1.9l-22.7-21.3l23.3-17.2V117.5z"/>
</svg>
