<?xml version="1.0" encoding="utf-8"?>
<!-- Generator: Adobe Illustrator 19.1.1, SVG Export Plug-In . SVG Version: 6.00 Build 0)  -->
<svg version="1.1" id="Calque_1" xmlns="http://www.w3.org/2000/svg" xmlns:xlink="http://www.w3.org/1999/xlink" x="0px" y="0px"
	 viewBox="770 -939 2500 2438" style="enable-background:new 770 -939 2500 2438;" xml:space="preserve">
<style type="text/css">
	.st0{fill:#FFFFFF;}
</style>
<g>
	<path class="st0" d="M1642.9-216.9h-2.1C1619-95,1561.7,111.2,1519,272.7h250C1739.8,157.1,1669-95,1642.9-216.9z"/>
	<path class="st0" d="M2615.8,234.2c0-7.3,2.1-12.5,2.1-17.7c0-56.3-27.1-160.4-135.4-160.4c-100,0-142.7,87.5-153.1,180.2h209.4
		C2591.9,236.3,2610.6,236.3,2615.8,234.2z"/>
	<path class="st0" d="M874.2,1394.6h2291.7V-834.6H874.2V1394.6z M2489.8-96c227.1,0,306.3,190.6,306.3,345.8
		c0,50-3.1,90.6-8.3,110.4c-2.1,8.3-5.2,11.5-13.5,13.5c-20.8,3.1-82.3,7.3-174,7.3h-272.9c2.7,139.5,69.5,233.3,227,233.3
		c61.5,0,114.6-8.3,169.8-32.3c7.3-3.1,12.5-2.1,12.5,7.3v130.2c0,10.4-3.1,15.6-10.4,20.8c-55.2,27.1-124,39.6-209.4,39.6
		c-275,0-378.1-203.1-378.1-429.2C2138.8,105,2265.8-96,2489.8-96z M1214.8,748.8l295.8-1034.4c5.2-18.7,8.3-33.3,10.4-85.4
		c0-7.3,3.1-10.4,8.3-10.4h218.8c7.3,0,10.4,2.1,12.5,10.4l331.2,1121.9c2.1,8.3,0,13.5-8.3,13.5h-171.9c-8.3,0-13.5-3.1-15.6-10.4
		l-85.4-312.5h-334.4v0L1394,752.9c-2.1,8.3-5.2,11.5-15.6,11.5h-153.1C1214.8,764.4,1212.7,761.3,1214.8,748.8z"/>
</g>
</svg>
