<?xml version="1.0" encoding="utf-8"?>
<!-- Generator: Adobe Illustrator 19.1.1, SVG Export Plug-In . SVG Version: 6.00 Build 0)  -->
<svg version="1.1" id="Layer_1" xmlns="http://www.w3.org/2000/svg" xmlns:xlink="http://www.w3.org/1999/xlink" x="0px" y="0px"
	 viewBox="-229 31 500 500" style="enable-background:new -229 31 500 500;" xml:space="preserve">
<style type="text/css">
	.st0{fill:#FFFFFF;}
</style>
<g>
	<path class="st0" d="M-207.9,58.4v445.3h457.7V58.4H-207.9z M66.2,377.8H31.6c-1.7,0-2.7-0.4-3.1-1.9l-17.1-62.6h-66.7l-16.4,62.4
		c-0.4,1.7-1,2.1-3.1,2.1h-30.6c-2.1,0-2.5-0.6-2.1-3.1l59.1-206.8c1-3.7,1.7-7.1,2.1-17.3c0-1.5,0.6-2.1,1.7-2.1h43.7
		c1.5,0,2.1,0.4,2.5,2.1L67.8,375C68.3,376.8,67.8,377.8,66.2,377.8z M136.1,375.4c0,1.7-0.4,2.5-2.5,2.5h-32.3
		c-2.1,0-2.7-1-2.7-2.7v-164h-0.2c0-1.7,0.6-2.5,2.5-2.5h32.7c1.7,0,2.5,0.6,2.5,2.5V375.4z M116.9,185.1
		c-12,0.1-20.8-7.4-20.8-21.2c0-13.3,9.4-21.2,21.2-21.2c12.7,0,21.2,8.5,21.2,21.2C138.6,177.6,129.6,185.1,116.9,185.1z"/>
	<path class="st0" d="M-22.6,181.8c-4.4,24.3-15.4,65.5-24.1,97.8H2.5c-5.8-23.1-19.6-73.4-24.8-97.8H-22.6z"/>
</g>
</svg>
