<?xml version="1.0" encoding="utf-8"?>
<!-- Generator: Adobe Illustrator 19.1.1, SVG Export Plug-In . SVG Version: 6.00 Build 0)  -->
<svg version="1.1" id="Calque_1" xmlns="http://www.w3.org/2000/svg" xmlns:xlink="http://www.w3.org/1999/xlink" x="0px" y="0px"
	 viewBox="770 -246 2500 1053" style="enable-background:new 770 -246 2500 1053;" xml:space="preserve">
<style type="text/css">
	.st0{fill:#FFFFFF;}
</style>
<title>Asset 1</title>
<path class="st0" d="M1627-30.9l-332.3-197.3c-39.5-23.6-88.7-23.6-128.2,0L834.1-30.9c-40,24.1-64.3,67.5-64.1,114.2v394.5
	c-0.2,46.7,24.1,90,64.1,114.1l332.3,197.2c39.5,23.5,88.7,23.5,128.2,0l332.3-197.2c40-24.1,64.4-67.5,64.1-114.2V83.3
	C1691.3,36.6,1666.9-6.8,1627-30.9z M1369.6,585.4l0.5,28.3c0,3.5-1.9,6.8-4.9,8.7l-16.8,9.6c-2.7,1.3-4.9,0-4.9-3.7v-27.9
	c-14.4,6-28.9,7.4-38.3,3.7c-1.7-0.7-2.5-3.3-1.8-6.3l6.1-25.6c0.5-2,1.5-3.9,3-5.3c0.5-0.5,1-0.8,1.6-1.1c0.9-0.4,1.9-0.4,2.7,0
	c11.9,3.2,24.5,1.6,35.2-4.5c15.4-7.4,25.4-22.8,26-39.9c0-14.4-7.9-20.4-26.6-20.5c-24.2,0-46.6-4.7-47-39.9
	c0.6-30.8,14.9-59.8,39-78.9l-1.2-29c0-3.6,1.8-6.9,4.9-8.8l16.6-10.6c2.7-1.3,4.9,0,4.9,3.8l0.3,28.9c10-4.5,21.1-5.9,31.8-3.9
	c2.1,0.5,2.9,3.3,2.1,6.7l-6.3,25.4c-0.5,1.9-1.5,3.7-2.9,5.1c-0.5,0.5-1.1,0.9-1.7,1.2c-0.8,0.4-1.6,0.5-2.5,0.4
	c-10.5-2.3-21.4-0.6-30.7,4.9c-13.5,6.1-22.3,19.3-22.7,34.1c0,13.3,6.7,17,29.9,17.4c30.7,0.5,44,13.9,44.3,44.8
	C1409.6,534.7,1394.7,565,1369.6,585.4z M1541.3,543.9l-84,51.1c-2.2,1.3-4,0.2-4-2.5v-21.8c0.1-2.4,1.6-4.5,3.8-5.4l82.8-49.5h0
	c2-1.3,3.9-0.2,4,2.3v19.1C1544.4,539.8,1543.4,542.4,1541.3,543.9z M1601.3,52l-314.1,194.6c-39.2,22.8-68.1,48.6-68.1,95.8v387.4
	c0,28.3,11.4,46.6,28.9,52c-5.8,1.1-11.6,1.6-17.4,1.7c-18.5,0-36.6-5-52.5-14.4L845.7,571.7c-32.8-19.9-52.8-55.6-52.7-94V83.3
	c-0.2-38.4,19.9-74.1,52.7-94L1178-208c32.3-19.3,72.7-19.3,105,0l332,197.3c27.4,16.6,46,44.4,51,76
	C1655,41.8,1630.2,35.4,1601.3,52z"/>
<path class="st0" d="M2120.7,295.8c-8.4-10.1-18.4-18.8-29.7-25.8l-4.3-2.5c9-6,17.1-13.1,24.1-21.3c15.5-18.1,24.1-41.1,24.2-65
	c0.7-20.6-4.1-40.9-14-59c-9.4-16.2-22.4-30.1-38-40.5c-16-10.5-33.7-18.2-52.4-22.7c-19.1-4.7-38.7-7.2-58.4-7.4h-133.1
	c-9.1-0.2-16.6,6.9-16.8,16V493c0.3,9.1,7.8,16.2,16.8,16h143.3c20.5-0.2,40.8-3.3,60.4-9.2c18.9-5.6,36.8-14.5,52.7-26.1
	c15.5-11.5,28.3-26.3,37.5-43.4c9.6-18.5,14.4-39.1,13.8-59.9c0.2-13.8-2.1-27.6-6.7-40.6C2135.8,317.4,2129.2,305.9,2120.7,295.8
	L2120.7,295.8z M2039.2,202.3c-3.7,6.4-8.8,11.9-14.8,16.2c-6.7,4.8-14.2,8.4-22.2,10.6c-8.6,2.6-17.6,4-26.6,4.1h-62.4V129.9h60.6
	c9.6,0.2,19.2,1.4,28.6,3.6c8,1.8,15.6,5,22.5,9.4c5.9,3.8,10.7,9,14.2,15.1c3.7,7,5.5,14.8,5.2,22.7
	C2044.6,188.2,2042.8,195.7,2039.2,202.3L2039.2,202.3z M1913.4,310.2h73.2c9.8,0.2,19.5,1.9,28.7,4.9c8,2.6,15.4,6.6,21.8,12
	c6,5,10.8,11.2,14,18.3c3.6,8.1,5.2,16.8,4.9,25.6c0.2,8.6-1.7,17.1-5.5,24.8c-3.6,7.2-8.8,13.4-15.1,18.4
	c-7,5.4-14.8,9.6-23.2,12.3c-9.1,3-18.6,4.6-28.1,4.8h-70.7V310.2z M2397.1,62.9c-2.4-6.8-8.9-11.2-16-11.1h-47.4
	c-7.1-0.1-13.5,4.3-16,11l-144.4,425.3c-1.7,4.9-0.8,10.2,2.4,14.3c3.2,4.1,8.1,6.6,13.3,6.7h56.8c7.2,0.1,13.7-4.4,16-11.2
	l32.3-98.9h124.4l31.7,98.8c2.3,6.9,8.8,11.4,16.1,11.3h56.5c5.2-0.1,10.1-2.5,13.3-6.7c3.2-4.1,4.1-9.4,2.5-14.3L2397.1,62.9z
	 M2393.5,319.8h-73.2l37-114L2393.5,319.8z M2880.5,312.2c-7.7-9.9-16.6-18.7-26.6-26.2c-9.9-7.5-20.5-14.2-31.5-20
	c-11.2-5.8-22.7-11-34.5-15.4c-11.4-4.3-23.1-8.2-34.7-11.6c-9.8-2.9-20.4-6.3-31.3-10c-9.9-3.4-19.4-7.9-28.3-13.3
	c-7.5-4.4-14.1-10.3-19.4-17.2c-4.5-6.4-6.8-14-6.7-21.8c-0.2-7.8,1.6-15.4,5.3-22.3c3.6-6.5,8.6-12.1,14.7-16.4
	c6.8-4.8,14.3-8.3,22.3-10.5c18.8-5.4,38.7-4.9,57.3,1.2c8.2,2.9,15.7,7.5,22.2,13.3c6.3,5.9,11.5,13,15.1,20.9
	c4.2,9.2,6.9,18.9,8.2,28.9c1.3,8.2,8.4,14.1,16.7,14h58.4c4.5,0,8.8-1.7,12-4.8c3.1-3,4.9-7.2,4.8-11.5c-0.2-20.9-5.4-41.4-15-59.9
	c-9.3-17.5-22.1-32.9-37.7-45.3c-16-12.6-34-22.3-53.2-28.7c-38.7-12.9-80.4-13.5-119.4-1.7c-18.6,5.4-36.1,13.9-51.9,25.2
	c-15.3,11-28.2,25.1-37.8,41.4c-10,17.3-15.2,36.9-14.9,56.9c-0.4,19.7,4.8,39.1,15.1,56c9.7,15.5,22.3,29,37.1,39.9
	c14.9,11,31,20.1,48.1,27.1c16.8,7.1,33.3,13.3,49.7,18.1c10.6,3.2,21.7,6.9,33.3,10.9c10.1,3.5,19.8,8.1,28.9,13.7
	c7.8,4.7,14.4,10.9,19.6,18.4c4.7,7.2,7,15.6,6.7,24.2c0.3,7.7-1.7,15.4-5.6,22c-4,6.4-9.4,11.9-15.8,16.1c-7.2,4.6-15.1,8-23.4,9.9
	c-20.4,5-41.8,4.6-61.9-1.2c-9.3-2.8-18-7.3-25.6-13.3c-7.4-5.8-13.5-13-18-21.2c-5-9.2-8.2-19.3-9.5-29.7
	c-1.3-8.1-8.4-14.1-16.7-13.9h-58.1c-4.5,0-8.8,1.7-12,4.9c-3.1,3-4.8,7.2-4.7,11.6c0.4,21.7,6.3,42.9,17.2,61.6
	c10.5,17.7,24.5,33,41.1,45.1c17.1,12.3,36.1,21.7,56.2,27.8c20.6,6.3,42,9.5,63.5,9.5c19.6,0,39.1-2.6,58-7.7
	c18.9-4.9,36.9-12.9,53.2-23.6c15.8-10.5,29.2-24.3,39.3-40.4c10.7-17.5,16.1-37.7,15.7-58.2c0.1-13.6-2.1-27.1-6.7-39.9
	C2894.7,333.1,2888.4,322.1,2880.5,312.2L2880.5,312.2z M3253.2,51.8h-53.8c-9.1-0.2-16.6,6.9-16.8,16v166.9h-149.8V67.8
	c-0.3-9.1-7.8-16.2-16.8-16h-53.2c-9.1-0.2-16.6,6.9-16.8,16v425.3c0.3,9.1,7.8,16.2,16.8,16h53.2c9.1,0.2,16.6-6.9,16.8-16V312.5
	h149.8v180.6c0.3,9.1,7.8,16.2,16.8,16h53.8c9.1,0.2,16.6-6.9,16.8-16V67.8C3269.8,58.7,3262.3,51.6,3253.2,51.8z M1874.1,582.8
	h-20.4v54.4h-10.8v-54.4h-20v-8.6h51.4L1874.1,582.8z M1936.7,637.2H1926v-28.1h-22.6v28.1h-10.6v-63h10.6v26.6h22.6v-26.6h10.6
	V637.2z M1999.2,609H1972v20h31.9v8.5H1961v-63h42.5v8.6H1972v17.8h27.3V609z M2093.7,637.2v-63h21.2c3,0,6,0.4,8.9,1.1
	c2.6,0.6,5,1.6,7.3,3.1c2.1,1.3,3.7,3.2,4.9,5.3c1.2,2.4,1.8,5,1.7,7.7c0,2.9-0.9,5.7-2.7,8c-1.9,2.3-4.4,4.1-7.3,5.1
	c1.7,0.5,3.4,1.2,4.9,2.1c1.4,0.9,2.6,2,3.6,3.3c1,1.3,1.7,2.7,2.3,4.2c0.5,1.6,0.8,3.3,0.8,4.9c0.1,2.7-0.5,5.5-1.7,7.9
	c-1.1,2.3-2.8,4.2-4.8,5.7c-2.2,1.6-4.6,2.8-7.3,3.5c-2.9,0.8-6,1.3-9,1.3L2093.7,637.2z M2104.6,600.8h10.4c1.5,0,3.1-0.2,4.6-0.6
	c1.3-0.3,2.6-0.9,3.7-1.7c1-0.7,1.9-1.7,2.5-2.8c0.6-1.2,0.9-2.5,0.9-3.8c0-1.4-0.3-2.8-0.9-4.1c-0.6-1.1-1.4-2.1-2.5-2.8
	c-1.1-0.8-2.4-1.3-3.7-1.6c-1.5-0.3-3.1-0.5-4.7-0.5h-10.4V600.8z M2104.6,608.7v20h11.9c1.6,0,3.2-0.3,4.7-0.7
	c1.3-0.4,2.6-1.1,3.7-2c1-0.8,1.9-1.9,2.5-3.1c0.6-1.3,0.9-2.7,0.9-4.1c0-1.5-0.3-2.9-0.8-4.3c-0.5-1.2-1.2-2.3-2.2-3.2
	c-1-0.9-2.2-1.6-3.5-2c-1.5-0.5-3.1-0.7-4.7-0.7L2104.6,608.7z M2205.2,609.8c0,3.6-0.5,7.2-1.5,10.7c-0.9,3.3-2.4,6.3-4.5,9
	c-2,2.6-4.5,4.8-7.5,6.3c-3.3,1.6-6.9,2.4-10.5,2.3c-6.9,0.2-13.6-3-17.7-8.6c-2-2.7-3.5-5.8-4.4-9c-1-3.5-1.5-7.1-1.5-10.7v-8.1
	c0-2.4,0.2-4.9,0.7-7.3c0.4-2.3,1.1-4.5,1.9-6.7c0.9-2.1,1.9-4,3.3-5.8c1.3-1.8,2.8-3.3,4.5-4.6c1.8-1.3,3.8-2.3,5.9-3
	c2.3-0.7,4.8-1.1,7.3-1.1c7-0.2,13.7,3,18,8.6c2.1,2.7,3.6,5.8,4.5,9c1,3.5,1.5,7.1,1.5,10.7L2205.2,609.8z M2194.3,601.7
	c0-2.4-0.2-4.7-0.7-7.1c-0.4-2.2-1.1-4.3-2.1-6.3c-1-1.8-2.3-3.3-4-4.5c-1.8-1.2-4-1.8-6.2-1.7c-2.2-0.1-4.3,0.5-6.1,1.7
	c-1.6,1.2-3,2.7-3.9,4.5c-1,2-1.7,4.1-2,6.3c-0.4,2.3-0.6,4.7-0.6,7.1v8.1c0,2.4,0.3,4.7,0.7,7.1c0.3,2.2,1,4.3,2,6.3
	c0.9,1.8,2.2,3.4,3.9,4.5c1.8,1.2,4,1.8,6.1,1.7c2.2,0.1,4.4-0.5,6.2-1.7c1.7-1.2,3-2.7,4-4.5c1-2,1.8-4.1,2.1-6.3
	c0.4-2.3,0.6-4.7,0.7-7.1L2194.3,601.7z M2270.1,574.3v42.2c0,3-0.6,6-1.7,8.8c-1,2.5-2.5,4.8-4.5,6.7c-1.9,1.9-4.2,3.4-6.7,4.4
	c-2.9,1.1-6,1.6-9.1,1.5c-3,0-6.1-0.5-8.9-1.5c-5.2-1.9-9.3-6-11.3-11.2c-1.1-2.8-1.7-5.9-1.7-8.9V574h10.7v42.2
	c0,1.8,0.3,3.6,0.8,5.3c0.4,1.5,1.1,2.9,2.1,4.2c0.9,1.2,2.1,2.1,3.4,2.7c1.5,0.7,3.1,1,4.7,1c1.7,0,3.3-0.3,4.9-1
	c1.4-0.6,2.6-1.6,3.5-2.7c1-1.2,1.7-2.7,2.1-4.2c0.5-1.7,0.8-3.5,0.8-5.3V574L2270.1,574.3z M2315.8,612.5h-11.1v24.6h-11v-63h21
	c3.2,0,6.3,0.4,9.4,1.3c2.7,0.7,5.2,1.9,7.5,3.5c2.1,1.6,3.7,3.6,4.9,5.9c1.2,2.6,1.8,5.4,1.7,8.3c0,2-0.3,3.9-0.9,5.8
	c-0.6,1.7-1.4,3.3-2.5,4.7c-1.1,1.4-2.3,2.7-3.8,3.7c-1.5,1.1-3.2,2-4.9,2.7l14,26.6v0.5h-11.6L2315.8,612.5z M2304.7,604.1h10
	c1.7,0,3.4-0.2,5-0.7c1.4-0.5,2.8-1.2,3.9-2.1c1.1-0.9,2-2,2.6-3.3c0.6-1.4,1-3,0.9-4.5c0-1.6-0.3-3.2-0.9-4.7
	c-0.5-1.3-1.4-2.5-2.5-3.4c-1.1-1-2.5-1.7-3.9-2.1c-1.7-0.5-3.4-0.7-5.2-0.7h-10L2304.7,604.1z M2403.1,637.2h-11l-21.6-43.3v43.3
	h-11v-63h11l21.5,43.3v-43.3h11V637.2z M2465.7,609h-27.3v20h31.9v8.5h-42.8v-63h42.5v8.6h-31.6v17.8h27.3V609z M2534.5,613.8H2498
	v-8.3h36.5V613.8z M2592.2,622.6h-20.7l-4.5,14.6h-11.3l21.5-63h9.3l21.1,63h-11.2L2592.2,622.6z M2574.3,613.8h15.2l-7.5-24.7
	L2574.3,613.8z M2671.2,629.4c-1.2,1.3-2.5,2.5-3.9,3.5c-1.6,1.1-3.3,2.1-5.1,2.8c-2,0.8-4,1.4-6.1,1.8c-2.3,0.5-4.7,0.7-7.1,0.7
	c-3.6,0.1-7.3-0.7-10.6-2.2c-3-1.4-5.7-3.5-7.8-6.1c-2.2-2.7-3.8-5.7-4.9-9c-1.1-3.6-1.7-7.4-1.7-11.2v-7.8c0-3.8,0.5-7.6,1.7-11.2
	c1-3.3,2.6-6.4,4.7-9c2-2.5,4.6-4.6,7.5-6.1c3.2-1.5,6.7-2.3,10.2-2.3c3.1,0,6.2,0.4,9.2,1.3c2.4,0.8,4.7,2.2,6.7,3.9
	c2,1.7,3.5,3.8,4.6,6.2c1.2,2.6,1.9,5.3,2.1,8.1H2660c-0.2-1.6-0.7-3.1-1.3-4.6c-0.5-1.3-1.3-2.5-2.3-3.5c-1-1-2.2-1.7-3.5-2.2
	c-1.6-0.5-3.3-0.8-4.9-0.7c-2.1-0.1-4.1,0.5-5.9,1.6c-1.7,1.1-3.1,2.6-4.1,4.4c-1.2,2.1-2,4.3-2.4,6.7c-0.5,2.5-0.8,5-0.8,7.6v7.9
	c0,2.5,0.3,5,0.9,7.5c0.4,2.4,1.3,4.6,2.5,6.7c1.1,1.8,2.6,3.3,4.4,4.4c2,1.2,4.3,1.7,6.7,1.7h3.2c1.1-0.1,2.1-0.3,3.1-0.6
	c0.9-0.3,1.9-0.7,2.7-1.1c0.8-0.4,1.4-1,2-1.7v-12.6h-12v-8.1h22.7L2671.2,629.4z M2725.5,622.6h-20.7l-4.5,14.6H2689l21.5-63h9.6
	l21.1,63h-11.2L2725.5,622.6z M2707.6,613.8h15.2l-7.5-24.7L2707.6,613.8z M2761.5,574.3h39.4v8.6h-14.3v45.8h14.3v8.6h-39.4v-8.6
	h14v-45.8h-14V574.3z M2869.6,637.2h-11l-21.6-43.3v43.3h-11v-63h11l21.5,43.3v-43.3h11L2869.6,637.2z M2994.3,621
	c0-1.4-0.3-2.7-1-3.9c-0.7-1.2-1.7-2.2-2.8-3c-1.3-0.9-2.8-1.7-4.3-2.3c-1.6-0.7-3.4-1.3-5.4-1.8c-2.6-0.7-5.2-1.6-7.7-2.7
	c-2.4-1-4.6-2.3-6.7-3.9c-1.9-1.5-3.6-3.3-4.9-5.4c-1.3-2.2-1.9-4.7-1.9-7.2c0-2.6,0.6-5.1,1.9-7.3c1.2-2.1,2.9-4,4.9-5.5
	c2.2-1.6,4.6-2.7,7.2-3.5c2.8-0.8,5.7-1.2,8.6-1.2c3,0,6,0.5,8.9,1.4c2.6,0.9,5.1,2.2,7.3,3.9c2,1.7,3.7,3.7,4.9,6.1
	c1.2,2.4,1.9,5.1,1.9,7.8h-10.9c-0.1-1.5-0.5-2.9-1.1-4.3c-0.5-1.3-1.4-2.4-2.4-3.4c-1.1-1-2.3-1.7-3.7-2.2
	c-1.6-0.6-3.3-0.8-5.1-0.8c-1.5,0-3.1,0.2-4.5,0.6c-1.3,0.4-2.5,1-3.6,1.8c-1,0.7-1.8,1.7-2.4,2.8c-0.6,1.2-0.9,2.4-0.9,3.7
	c0,1.4,0.4,2.7,1.2,3.8c0.8,1.1,1.9,2.1,3.1,2.9c1.4,0.9,2.9,1.6,4.4,2.1c1.6,0.6,3.4,1.1,5.2,1.6c2.7,0.8,5.4,1.7,7.9,2.9
	c2.4,1.1,4.6,2.5,6.7,4.1c1.8,1.5,3.4,3.4,4.5,5.5c1.2,2.2,1.7,4.7,1.7,7.3c0.1,2.6-0.6,5.1-1.9,7.4c-1.2,2.1-2.9,4-5,5.4
	c-2.2,1.5-4.7,2.6-7.3,3.3c-2.8,0.8-5.7,1.1-8.7,1.1c-2,0-4.1-0.2-6.1-0.5c-2-0.4-3.9-0.9-5.7-1.7c-1.8-0.7-3.5-1.7-5.1-2.8
	c-1.5-1.1-2.9-2.4-4.1-3.9c-2.5-3.1-3.8-6.9-3.8-10.8h11c0.1,1.7,0.6,3.4,1.3,5c0.7,1.4,1.7,2.6,2.9,3.5c1.3,1,2.7,1.7,4.3,2.1
	c1.8,0.5,3.6,0.7,5.4,0.7c1.5,0,3.1-0.2,4.6-0.5c1.3-0.3,2.6-0.9,3.7-1.7c1-0.7,1.9-1.6,2.5-2.7
	C2994.1,623.7,2994.4,622.4,2994.3,621L2994.3,621z M3069.5,637.2h-10.6v-28.1h-22.6v28.1h-10.6v-63h10.6v26.6h22.7v-26.6h10.6
	L3069.5,637.2z M3132.1,609h-27.3v20h31.9v8.5h-42.9v-63h42.5v8.6h-31.6v17.8h27.3V609z M3172.1,628.8h31.6v8.5h-42.5v-63h10.9
	V628.8z M3238.6,628.8h31.6v8.5h-42.5v-63h10.9V628.8z"/>
</svg>
