<?xml version="1.0" encoding="utf-8"?>
<!-- Generator: Adobe Illustrator 19.1.1, SVG Export Plug-In . SVG Version: 6.00 Build 0)  -->
<svg version="1.1" id="Calque_1" xmlns="http://www.w3.org/2000/svg" xmlns:xlink="http://www.w3.org/1999/xlink" x="0px" y="0px"
	 viewBox="770 -970 2500 2500" style="enable-background:new 770 -970 2500 2500;" xml:space="preserve">
<style type="text/css">
	.st0{fill:#FFFFFF;}
</style>
<g>
	<path class="st0" d="M2343.1,412.5c-43.8-33.2-101.8-49.8-173.8-49.8h-362.5v415.5h356.2c32.5,0,63.6-3.2,93.3-9.5
		c29.7-6.4,55.8-17,78.4-31.8c22.6-14.8,40.6-35,54.1-60.4c13.4-25.4,20.1-57.9,20.1-97.5C2408.8,501.2,2386.9,445.7,2343.1,412.5z"
		/>
	<path class="st0" d="M2290,93.4c38.2-28.3,57.2-74.2,57.2-137.8c0-35.3-6.4-64.3-19.1-86.9c-12.7-22.6-29.7-40.3-50.9-53
		c-21.2-12.7-45.6-21.6-73.1-26.5c-27.6-5-56.2-7.4-85.9-7.4h-311.6v354l0,0h337.1C2203.1,135.8,2251.9,121.7,2290,93.4z"/>
	<path class="st0" d="M2947.6-970H1092.4C914.3-970,770-825.7,770-647.6v1855.3v0c0,178,144.3,322.4,322.4,322.4h1855.3
		c178.1,0,322.4-144.3,322.4-322.4V-647.6C3270-825.7,3125.7-970,2947.6-970z M2697.1,796.2c-29.7,55.8-69.6,101.4-119.8,136.7
		c-50.2,35.3-107.4,61.5-171.7,78.4c-64.3,17-130.4,25.4-198.2,25.4h-733.5V-476.8h712.3c72.1,0,137.8,6.4,197.2,19.1
		c59.4,12.7,110.2,33.6,152.6,62.5c42.4,29,75.3,67.5,98.6,115.5c23.3,48.1,35,107.4,35,178.1c0,76.3-17.3,139.9-51.9,190.8
		c-34.6,50.9-85.9,92.6-153.7,125.1c93.3,26.9,162.9,73.8,208.8,141c45.9,67.1,68.9,148,68.9,242.7
		C2741.6,674.3,2726.8,740.4,2697.1,796.2z"/>
</g>
</svg>
