<?xml version="1.0" encoding="utf-8"?>
<!-- Generator: Adobe Illustrator 19.1.1, SVG Export Plug-In . SVG Version: 6.00 Build 0)  -->
<svg version="1.1" id="Calque_1" xmlns="http://www.w3.org/2000/svg" xmlns:xlink="http://www.w3.org/1999/xlink" x="0px" y="0px"
	 viewBox="-351 100 256 361" style="enable-background:new -351 100 256 361;" xml:space="preserve">
<style type="text/css">
	.st0{fill:#FFFFFF;}
</style>
<path class="st0" d="M-346.3,174.8l22.4,251.7l100.7,28l101-28l22.5-251.7H-346.3z M-300.4,226.3h77.3v30.9h-74.5L-300.4,226.3z
	 M-294.9,288.8h71.7v30.9h-69L-294.9,288.8z M-151.3,288.8l-0.8,8.3l-7.3,81.3l-0.5,5.2l-63.2,17.5h-0.1l-63.2-17.6l-4.3-48.5h31
	l2.2,24.6l34.4,9.3V401h0.1V369l34.3-9.3l3.6-40H-223v-30.9h40.6l2.8-31.6H-223v-30.9h77.2L-151.3,288.8z"/>
<polygon class="st0" points="-250.9,137.8 -272.6,137.8 -272.6,122.1 -250.9,122.1 -250.9,106.5 -288.3,106.5 -288.3,153.4 
	-250.9,153.4 "/>
<polygon class="st0" points="-206,122.8 -227.8,122.8 -227.8,120.1 -206,120.1 -206,106.5 -243.4,106.5 -243.4,137.1 -221.6,137.1 
	-221.6,139.8 -243.4,139.8 -243.4,154.1 -206,154.1 "/>
<polygon class="st0" points="-161.1,122.8 -182.9,122.8 -182.9,120.1 -161.1,120.1 -161.1,106.5 -198.5,106.5 -198.5,137.1 
	-176.8,137.1 -176.8,139.8 -198.5,139.8 -198.5,154.1 -161.1,154.1 "/>
</svg>
