<?xml version="1.0" encoding="utf-8"?>
<!-- Generator: Adobe Illustrator 19.1.1, SVG Export Plug-In . SVG Version: 6.00 Build 0)  -->
<svg version="1.1" id="Calque_1" xmlns="http://www.w3.org/2000/svg" xmlns:xlink="http://www.w3.org/1999/xlink" x="0px" y="0px"
	 viewBox="0 0 1920 560" style="enable-background:new 0 0 1920 560;" xml:space="preserve">
<path d="M1773.2,59.4c0-83.3-67.6-150.9-150.9-150.9c-52.1,0-98,26.4-125.1,66.5c-27-25.1-63.1-40.5-102.9-40.5
	c-50,0-94.3,24.3-121.8,61.8c-27-25.3-63.3-40.8-103.2-40.8c-29.9,0-57.7,8.7-81.2,23.7c-26.7-42.5-74-70.7-127.8-70.7
	c-22.9,0-44.5,5.1-64,14.2c-22.9-54.2-76.5-92.2-139-92.2c-66.1,0-122.3,42.5-142.7,101.7c-16.6-6.3-34.6-9.7-53.3-9.7
	c-4.8,0-9.5,0.2-14.2,0.7c-27.6-34.5-70.2-56.7-117.8-56.7c-54.7,0-102.5,29.1-129,72.6c-27.1-25.8-63.7-41.6-104-41.6
	c-27,0-52.3,7.1-74.2,19.5c-26.9-25.1-63.1-40.5-102.8-40.5c-83.3,0-150.9,67.5-150.9,150.9c0,33.9,11.2,65.3,30.1,90.5
	c-36.5,27.5-60.1,71.3-60.1,120.5c0,29.1,8.2,56.2,22.5,79.3c-39,27.3-64.5,72.5-64.5,123.7c0,83.3,67.5,150.9,150.9,150.9
	c10.4,0,20.6-1.1,30.4-3.1s19.3-5,28.3-8.9c8.7-6.4,16.2-13.5,22.7-21.3c6.5-7.8,11.9-16.1,16.6-25C53,521,57,507,62,493
	c2.3-8,4.2-16.1,5.8-24.1C75,434,66,389,94,368c48-33,119,7,161.4,43.7c5.6,5.5,11,11.2,16.4,16.3c5.2,5.8,10.4,11.7,15.7,17.7
	c10.4,11.9,20.9,24,31.5,36.4c39,45,94,9,135.7-8.3c6.8-2.6,13.7-5,20.7-7.3c27.8-9.3,56.5-16.9,85.1-25.1c6.7-1,13.4-1.9,20.1-2.9
	c20-2.8,40-5.5,60.5-7.5c22-2,41-18,63-25c6-2,12-3,17.8-4c7.2-1.3,14.4-2.3,21.7-2.8C764,397,784,406,804,407
	c6.5,0.3,13.3,0.6,20.3,1.2C853,412,880,421,908,429c7,1.5,14,2.3,21.1,3.1C935,434,941,433,947,435c33,12,72,31,103,5
	c6-5.5,11-11.8,16.3-17.5s10.8-11,17.8-14.4c29.5-17.5,59.5-19,89.2-12.5c9.9,2.2,19.8,5.2,29.6,8.9C1230,414,1253,435,1281,436
	c8.3,0.3,16.1-0.7,23.7-2.6s14.7-4.8,21.4-8.6C1354,407,1383,391,1413,375c6-3.5,12.8-9,18.6-13.4c3.4-3.6,8.4-6.6,11.4-5.6
	c74,35,173,42,225-35c25-38,19-81,29-121c2-7,7-12,12.6-16.6s11.9-8.8,16.4-14.3c4.8-4.6,9.4-9.5,13.6-14.7
	C1760.6,128.5,1773.2,95.4,1773.2,59.4z"/>
</svg>
