<?xml version="1.0" encoding="utf-8"?>
<!-- Generator: Adobe Illustrator 19.1.1, SVG Export Plug-In . SVG Version: 6.00 Build 0)  -->
<svg version="1.1" id="Calque_1" xmlns="http://www.w3.org/2000/svg" xmlns:xlink="http://www.w3.org/1999/xlink" x="0px" y="0px"
	 viewBox="-229 31 500 500" style="enable-background:new -229 31 500 500;" xml:space="preserve">
<style type="text/css">
	.st0{fill:#FFFFFF;}
</style>
<path class="st0" d="M68.6,250.2c-10.1,0-17.7,5-17.7,16.9c0,9,5,15.3,17.1,15.3c10.3,0,17.3-6.1,17.3-15.6
	C85.3,255.9,79,250.2,68.6,250.2L68.6,250.2z M48.3,334.7c-2.4,2.9-4.8,6.1-4.8,9.8c0,7.4,9.4,9.6,22.3,9.6
	c10.7,0,25.2-0.7,25.2-10.7c0-5.9-7-6.3-15.8-6.8L48.3,334.7L48.3,334.7z M102.8,250.8c3.3,4.2,6.8,10.1,6.8,18.6
	c0,20.4-16,32.4-39.2,32.4c-5.9,0-11.2-0.7-14.5-1.7l-6.1,9.8l18,1.1c31.8,2,50.6,3,50.6,27.4c0,21.2-18.6,33.1-50.6,33.1
	c-33.3,0-46-8.5-46-23c0-8.3,3.7-12.7,10.1-18.8c-6.1-2.6-8.1-7.2-8.1-12.1c0-4.1,2-7.7,5.3-11.2s7-7,11.4-11
	c-9-4.4-15.8-14-15.8-27.6c0-21.2,14-35.7,42.1-35.7c7.9,0,12.7,0.7,16.9,1.8h36v15.6L102.8,250.8"/>
<path class="st0" d="M152.1,217.3c-10.5,0-16.6-6.1-16.6-16.6s6.1-16.2,16.6-16.2c10.7,0,16.7,5.7,16.7,16.2
	C168.8,211.3,162.8,217.3,152.1,217.3z M128.4,327.9v-14.5l9.4-1.3c2.6-0.4,2.9-0.9,2.9-3.7v-54.1c0-2-0.5-3.3-2.4-3.9l-9.9-3.5
	l2-14.9h38.1v76.4c0,2.9,0.2,3.3,2.9,3.7l9.4,1.3v14.5H128.4"/>
<path class="st0" d="M253.6,320.8c-7.9,3.9-19.5,7.4-30,7.4c-21.9,0-30.2-8.8-30.2-29.6v-48.2c0-1.1,0-1.8-1.5-1.8H179v-16.4
	c16.2-1.8,22.6-9.9,24.7-30h17.5v26.1c0,1.3,0,1.8,1.5,1.8h25.9v18.4h-27.4v44c0,10.9,2.6,15.1,12.5,15.1c5.2,0,10.5-1.3,14.9-2.9
	L253.6,320.8"/>
<path class="st0" d="M-19.1,272.5l-84.1-84.1c-4.8-4.8-12.7-4.8-17.5,0l-17.5,17.5l22.2,22.2c5.2-1.7,11.1-0.6,15.2,3.5
	s5.3,10.1,3.5,15.3l21.4,21.4c5.2-1.8,11.1-0.6,15.3,3.5c5.8,5.8,5.8,15.1,0,20.9s-15.1,5.8-20.9,0c-4.3-4.3-5.4-10.7-3.2-16.1
	l-19.9-19.9V309c1.4,0.7,2.7,1.6,3.9,2.8c5.8,5.8,5.8,15.1,0,20.9s-15.1,5.8-20.9,0c-5.8-5.8-5.8-15.1,0-20.9
	c1.4-1.4,3.1-2.5,4.8-3.2v-52.9c-1.8-0.7-3.4-1.8-4.8-3.2c-4.4-4.4-5.4-10.8-3.2-16.1l-21.8-21.9l-57.7,57.7
	c-4.8,4.8-4.8,12.7,0,17.6l84.1,84.1c4.8,4.8,12.7,4.8,17.6,0l83.7-83.7C-14.2,285.2-14.2,277.4-19.1,272.5"/>
</svg>
