<?xml version="1.0" encoding="utf-8"?>
<!-- Generator: Adobe Illustrator 19.1.1, SVG Export Plug-In . SVG Version: 6.00 Build 0)  -->
<svg version="1.1" id="Layer_1" xmlns="http://www.w3.org/2000/svg" xmlns:xlink="http://www.w3.org/1999/xlink" x="0px" y="0px"
	 viewBox="-223 25 512 512" style="enable-background:new -223 25 512 512;" xml:space="preserve">
<style type="text/css">
	.st0{fill:#FFFFFF;}
</style>
<g>
	<path class="st0" d="M-136,136.3l30.8,344.9l138,38.3L171.2,481L202,136.3H-136z M-72.1,218.2l-1-11.4h106v26.3v16v0.1h-59.7
		l3.9,43.3h55.8v42.3h-94.5L-72.1,218.2z M130.2,303.8l-9.9,111.4l-0.6,7.1l-86.6,24l0,0l-0.2,0.1l-86.7-24.1l-5.9-66.4h19.6h22.9
		l3,33.7l47.1,12.7l0,0v44H33v-44l0,0l47-12.7l4.9-54.9H33v-42.3h86.8h11.4L130.2,303.8z M137.8,218.2l-1.9,21.4l-0.8,9.5H135H33
		v-42.3h105.8L137.8,218.2z"/>
	<polygon class="st0" points="-83,85.4 -63.4,85.4 -63.4,106.9 -41.9,106.9 -41.9,42.6 -63.4,42.6 -63.4,63.8 -83,63.8 -83,42.6 
		-104.5,42.6 -104.5,106.9 -83,106.9 	"/>
	<polygon class="st0" points="-13.6,63.9 -13.6,106.9 7.9,106.9 7.9,63.9 26.8,63.9 26.8,42.6 -32.5,42.6 -32.5,63.9 	"/>
	<polygon class="st0" points="57.3,75 72.1,97.9 72.5,97.9 87.3,75 87.3,106.9 108.7,106.9 108.7,42.6 86.3,42.6 72.5,65.2 
		58.7,42.6 36.3,42.6 36.3,106.9 57.3,106.9 	"/>
	<polygon class="st0" points="171.1,85.7 140.9,85.7 140.9,42.6 119.4,42.6 119.4,106.9 171.1,106.9 	"/>
</g>
</svg>
