<?xml version="1.0" encoding="utf-8"?>
<!-- Generator: Adobe Illustrator 19.1.1, SVG Export Plug-In . SVG Version: 6.00 Build 0)  -->
<svg version="1.1" id="Layer_2" xmlns="http://www.w3.org/2000/svg" xmlns:xlink="http://www.w3.org/1999/xlink" x="0px" y="0px"
	 viewBox="-405 207.5 147.5 147.5" style="enable-background:new -405 207.5 147.5 147.5;" xml:space="preserve">
<style type="text/css">
	.st0{fill:#FFFFFF;}
</style>
<g>
	<path class="st0" d="M-360.6,248.4l-6.4,0.3v33.7l6.4,0.3c9.1,0,16.6-6.7,16.6-16.1C-344.1,257-351.5,248.4-360.6,248.4z"/>
	<path class="st0" d="M-405,207.5V355h147.5V207.5H-405z M-327.7,271.9c-0.3,1.8-0.8,3.3-1.5,4.6c-4.9,11.2-18.1,19.3-33.6,19.3
		c-1.2,0-2.4-0.1-3.5-0.2c-0.4,0.1-0.7,0.2-0.7,0.2V324h-19v-88c0,0,21-2,34,0s17.3,7.3,20,11.7c2.5,4.1,5.2,7.7,4.9,18.6
		c0,0.2,0,0.5,0,0.7C-327.2,268.7-327.4,270.3-327.7,271.9z M-301.2,325.4c-14.1-0.1-20.4-6-20.4-6v-15.5c0,0,12.7,7.2,20.4,7.2
		c10.9,0.1,12.6-7-2.8-14.2c-10.1-4.8-17.7-8.6-17.7-21.1c0-14.3,14.1-20.5,24.8-20.6s17.3,4.7,17.3,4.7v14.8c0,0-9.4-5.4-17.1-5.4
		c-8.7,0-13.8,7-0.9,12.5c6,2.6,21.2,8.4,21.2,22.6C-276.4,317.9-287.1,325.5-301.2,325.4z"/>
</g>
</svg>
