<?xml version="1.0" encoding="utf-8"?>
<!-- Generator: Adobe Illustrator 19.1.1, SVG Export Plug-In . SVG Version: 6.00 Build 0)  -->
<svg version="1.1" id="Calque_1" xmlns="http://www.w3.org/2000/svg" xmlns:xlink="http://www.w3.org/1999/xlink" x="0px" y="0px"
	 viewBox="0 0 200 200" style="enable-background:new 0 0 200 200;" xml:space="preserve">
<style type="text/css">

	.st4{fill:white;}
</style>

<g>
	<path class="st4" d="M96.6,86.8c-0.4-0.7-0.9-1.4-1.5-2c-0.1-0.1-0.2-0.2-0.4-0.3c-0.2-0.2-0.4-0.3-0.6-0.5
		c-0.1-0.1-0.3-0.2-0.4-0.3c-0.1-0.1-0.2-0.1-0.3-0.2c-0.2-0.1-0.4-0.2-0.5-0.3c-0.1-0.1-0.3-0.2-0.4-0.2c-0.1-0.1-0.2-0.1-0.3-0.2
		c-0.1,0-0.2-0.1-0.3-0.1c-0.1,0-0.1-0.1-0.2-0.1c-0.1-0.1-0.3-0.1-0.4-0.2c-0.1,0-0.2-0.1-0.2-0.1c-0.2,0-0.3-0.1-0.5-0.1
		c-0.1,0-0.2,0-0.2-0.1c-0.3-0.1-0.6-0.1-0.9-0.2c-0.1,0-0.2,0-0.2,0c-0.2,0-0.3,0-0.5,0s-0.3,0-0.5,0c-0.1,0-0.2,0-0.2,0
		c-0.2,0-0.3,0-0.5,0c-1.5,0.1-3.1,0.5-4.5,1.3c-1.1,0.7-2.1,1.5-2.9,2.5c-0.1,0.1-0.1,0.2-0.2,0.3c-0.1,0.1-0.1,0.2-0.2,0.3
		c-0.2,0.3-0.4,0.5-0.5,0.8C79.1,87,79,87.2,79,87.3c-0.1,0.1-0.1,0.3-0.2,0.4c0,0.1-0.1,0.1-0.1,0.2c-0.2,0.4-0.3,0.9-0.4,1.3
		s-0.2,0.9-0.2,1.4c0,0.2,0,0.4,0,0.6c0,0.6,0,1.1,0.1,1.7c0.2,1.3,0.6,2.6,1.3,3.8c1.5,2.5,3.9,4.2,6.5,4.8
		c0.2,0.1,0.5,0.1,0.7,0.1c0.1,0,0.2,0,0.2,0c0.2,0,0.3,0,0.5,0c0.5,0,1,0,1.4,0c0.2,0,0.3,0,0.5,0c1.3-0.2,2.6-0.6,3.8-1.3
		c1.4-0.8,2.6-1.9,3.4-3.2c0.1-0.1,0.2-0.3,0.3-0.4c0.1-0.2,0.2-0.4,0.3-0.6c0.1-0.1,0.1-0.3,0.2-0.4c0-0.1,0.1-0.1,0.1-0.2
		c0.1-0.1,0.1-0.3,0.2-0.4c0.1-0.2,0.1-0.5,0.2-0.7c0-0.2,0.1-0.3,0.1-0.5c0.1-0.4,0.1-0.8,0.2-1.2c0-0.2,0-0.3,0-0.5s0-0.3,0-0.5
		s0-0.5,0-0.7C97.8,89.6,97.4,88.1,96.6,86.8z"/>
	<path class="st4" d="M128.1,117.2c0-0.1,0-0.2,0-0.3c0-0.2-0.1-0.5-0.2-0.7c0-0.1-0.1-0.2-0.1-0.3s-0.1-0.2-0.1-0.3
		c-0.1-0.1-0.1-0.3-0.2-0.4c-0.4-0.8-1-1.6-1.8-2.2c-0.4-0.3-0.9-0.6-1.4-0.8c-0.1,0-0.2-0.1-0.3-0.1c-0.1-0.1-0.3-0.1-0.4-0.1
		s-0.2-0.1-0.3-0.1c-0.1,0-0.1,0-0.2,0s-0.3-0.1-0.4-0.1s-0.2,0-0.3,0c-0.1,0-0.2,0-0.2,0c-0.1,0-0.1,0-0.2,0s-0.1,0-0.2,0
		s-0.2,0-0.3,0c-0.1,0-0.1,0-0.2,0s-0.2,0-0.3,0h-0.1c-0.2,0-0.4,0.1-0.6,0.1h-0.1c-0.1,0-0.2,0.1-0.3,0.1c-0.1,0-0.2,0.1-0.3,0.1
		c0,0-0.1,0-0.1,0.1c-0.1,0-0.2,0.1-0.3,0.1c-0.9,0.4-1.7,1-2.3,1.8c-0.5,0.7-0.9,1.4-1.1,2.1c0,0.1,0,0.1-0.1,0.2
		c0,0.1,0,0.1,0,0.2c0,0.2-0.1,0.4-0.1,0.6c0,0.1,0,0.2,0,0.3c0,0.1,0,0.2,0,0.3c0,0.1,0,0.1,0,0.2c0,0.3,0,0.6,0.1,0.9
		c0,0.3,0.1,0.6,0.2,0.8c0,0.1,0.1,0.2,0.1,0.3c0.1,0.3,0.3,0.7,0.4,1c0.4,0.7,0.9,1.4,1.6,1.9c1.5,1.1,3.2,1.5,4.9,1.2
		c0.1,0,0.3-0.1,0.4-0.1h0.1c0.1,0,0.2-0.1,0.3-0.1c0.3-0.1,0.6-0.2,0.8-0.3c0.1,0,0.2-0.1,0.3-0.1c0.7-0.4,1.4-0.9,1.9-1.6
		c0.6-0.8,1-1.7,1.2-2.7c0-0.1,0-0.2,0-0.3c0-0.1,0-0.3,0-0.5c0-0.1,0-0.2,0-0.3c0-0.1,0-0.1,0-0.2s0-0.2,0-0.3
		C128.1,117.5,128.1,117.4,128.1,117.2z"/>
	<path class="st4" d="M100,42.5c-31.7,0-57.5,25.7-57.5,57.5c0,31.7,25.7,57.5,57.5,57.5s57.5-25.7,57.5-57.5
		C157.5,68.3,131.7,42.5,100,42.5z M104.2,113.1l-6,3.5c-0.8,0.4-1.4,0.1-1.8-0.7l-2-3.5c-2.4,0.8-4.6,1-6.8,0.9l-0.1,0.1l-1.1,3.9
		c-0.2,0.9-1.1,1.4-2,1.1l-6.7-1.8c-0.9-0.2-1.4-1.1-1.1-2l1-3.9c-2-1.1-3.7-2.3-5.4-4.2l0,0l-3.5,2c-0.8,0.4-1.5,0.2-1.9-0.5
		l-3.5-6c-0.4-0.8-0.3-1.6,0.4-2l3.5-2c-0.8-2.4-0.9-4.5-0.9-6.7l0,0l-3.9-1.1c-0.9-0.2-1.4-1.1-1.1-2l1.8-6.7
		c0.2-0.9,1.1-1.4,2-1.1l4,1c1.1-2,2.4-3.7,4.3-5.4l0,0l-2-3.5c-0.4-0.8-0.5-1.6,0.3-2.1l6-3.5c0.8-0.4,1.8-0.1,2.3,0.6l2,3.5
		c2.4-0.8,4.4-0.9,6.7-0.8l0,0l1-3.8c0.2-0.9,1.1-1.4,2-1.1l6.7,1.8c0.9,0.2,1.4,1.1,1.1,2l-1,3.9c2,1.1,3.9,2.7,5.3,4.2l0,0l3.5-2
		c0.8-0.4,1.9-0.3,2.4,0.4l3.5,6c0.4,0.8-0.1,1.6-0.9,2.1l-3.5,2c0.8,2.4,1,4.6,0.9,6.8v0.1l3.9,1.1c0.9,0.2,1.4,1.1,1.1,2l-1.8,6.7
		c-0.2,0.9-1.1,1.4-2,1.1l-3.8-1.1c-1.1,2-2.2,3.6-4.1,5.3l0,0l2,3.5C105.3,111.7,104.9,112.7,104.2,113.1z M137.9,119.3l-2.5,0.3
		c-0.2,1.4-0.4,2.6-1.1,4l0,0l2,1.5c0.4,0.3,0.4,1,0.1,1.4l-2.7,3.4c-0.3,0.4-0.8,0.4-1.2,0l-2-1.5c-1.2,1-2.4,1.7-3.8,2.2v0.1
		l0.3,2.5c0.1,0.6-0.3,1.1-0.9,1.1l-4.3,0.5c-0.6,0.1-1.1-0.3-1.1-0.9l-0.4-2.5c-1.4-0.2-2.7-0.5-4.1-1.2l0,0l-1.5,2
		c-0.3,0.4-0.8,0.5-1.2,0.1l-3.4-2.7c-0.4-0.3-0.6-0.8-0.2-1.3l1.5-2c-1-1.2-1.6-2.4-2.1-3.7l0,0l-2.5,0.3c-0.6,0.1-1.1-0.3-1.1-0.9
		l-0.5-4.3c-0.1-0.6,0.3-1.1,0.9-1.1l2.6-0.4c0.2-1.4,0.5-2.7,1.2-4.2l0,0l-2-1.5c-0.4-0.3-0.7-0.8-0.3-1.3l2.7-3.4
		c0.3-0.4,1-0.5,1.5-0.2l2,1.5c1.2-1,2.4-1.6,3.7-2.1l0,0l-0.3-2.5c-0.1-0.6,0.3-1.1,0.9-1.1l4.3-0.5c0.6-0.1,1.1,0.3,1.1,0.9
		l0.3,2.5c1.4,0.2,2.9,0.6,4.1,1.1l0,0l1.5-2c0.3-0.4,1-0.6,1.5-0.3l3.4,2.7c0.4,0.3,0.3,1,0,1.4l-1.5,2c1,1.2,1.6,2.4,2.1,3.7l0,0
		l2.5-0.3c0.6-0.1,1.1,0.3,1.1,0.9l0.5,4.3C138.8,118.7,138.4,119.2,137.9,119.3z"/>
</g>
</svg>
