<?xml version="1.0" encoding="utf-8"?>
<!-- Generator: Adobe Illustrator 19.1.1, SVG Export Plug-In . SVG Version: 6.00 Build 0)  -->
<svg version="1.1" id="Layer_1" xmlns="http://www.w3.org/2000/svg" xmlns:xlink="http://www.w3.org/1999/xlink" x="0px" y="0px"
	 viewBox="-229 31 500 500" style="enable-background:new -229 31 500 500;" xml:space="preserve">
<style type="text/css">
	.st0{fill:#00C9FF;}
	.st1{fill:none;}
	.st2{fill:#FFFFFF;}
</style>
<circle class="st0" cx="21" cy="281" r="241"/>
<g>
	<path class="st1" d="M29.7,310.8c-8.4,2.4-17,1.2-24-2.9l-60.7,63.3c10.7,9,23,16.1,36.2,20.8c0.4,0.2,0.8,0.3,1.3,0.5
		c22.3,7.7,47.2,8.9,71.6,1.8c24.4-7.1,44.8-21.4,59.4-39.9c0.3-0.4,0.6-0.7,0.8-1.1c8.6-11.1,15.1-23.6,19.4-37l-85.2-20.9
		C44.6,302.6,38.1,308.3,29.7,310.8z"/>
	<path class="st1" d="M-8.8,289.7c-4.1-14,2.1-28.5,14.2-35.4L-19.1,170c-21.3,7.7-39.1,20.9-52.3,37.6c-0.3,0.4-0.6,0.7-0.8,1.1
		c-14.6,18.9-23.4,42-24.6,66.3c-0.1,1.6-0.1,3.2-0.1,4.7c-0.1,11.3,1.4,22.8,4.7,34.3s8.2,22,14.4,31.5c0.9,1.3,1.8,2.6,2.7,3.9
		c2.9,4.1,6,7.9,9.3,11.5l60.7-63.3C-6.7,295.1-7.9,292.5-8.8,289.7z"/>
	<path class="st1" d="M119.9,216.6c-0.9-1.3-1.8-2.6-2.7-3.9c-14.1-19.8-33.9-34.6-56.3-42.7c-0.4-0.2-0.8-0.3-1.3-0.5
		c-20.1-7-42.3-8.6-64.3-3.6L19.8,250c13.9-0.6,26.9,8.4,31,22.3c0.8,2.8,1.2,5.7,1.2,8.5l85.2,20.9c0.9-4.8,1.4-9.8,1.7-14.7
		c0.1-1.6,0.1-3.2,0.1-4.7c0.1-11.3-1.4-22.8-4.7-34.3S126.1,226.1,119.9,216.6z"/>
	<path class="st2" d="M193.5,301.4l0.9-30l-28.7-0.9c-0.7-10-2.5-20-5.4-30s-6.8-19.4-11.5-28.2l23.8-16.2l-16.9-24.8l-23.8,16.2
		c-13.3-15.7-29.7-28.3-47.9-37.1l9.7-27.1l-28.2-10.1l-9.7,27.1c-19.4-4.8-40-5.6-60.6-1.9l-8-27.6l-28.8,8.4l8,27.6
		c-19.4,7.9-36.3,19.6-50.1,34.1l-22.7-17.6l-18.4,23.7l22.8,17.6c-10.7,17.2-17.8,36.7-20.5,57l-28.7-0.9l-0.9,30l28.7,0.9
		c0.7,10,2.5,20,5.4,30s6.8,19.4,11.5,28.2l-23.8,16.2l16.9,24.8l23.8-16.2c13.3,15.7,29.7,28.3,47.9,37.1l-9.7,27.1l28.2,10.1
		l9.7-27.1c19.4,4.8,40,5.6,60.6,1.9l8,27.6l28.8-8.4l-8-27.6c19.4-7.9,36.3-19.6,50.1-34.1l22.7,17.6l18.4-23.7l-22.8-17.6
		c10.7-17.2,17.8-36.7,20.5-57L193.5,301.4z M-75.2,349.3c-0.9-1.3-1.8-2.6-2.7-3.9c-6.2-9.5-11.1-20-14.4-31.5s-4.8-23-4.7-34.3
		c0-1.6,0.1-3.2,0.1-4.7c1.2-24.3,10-47.4,24.6-66.3c0.3-0.4,0.5-0.7,0.8-1.1c13.2-16.7,31.1-29.9,52.3-37.6l24.5,84.2
		c-12,7-18.2,21.5-14.2,35.4c0.8,2.8,2,5.5,3.5,7.9l-60.7,63.3C-69.2,357.2-72.3,353.4-75.2,349.3z M114.2,353.3
		c-0.3,0.4-0.5,0.7-0.8,1.1c-14.7,18.5-35,32.8-59.4,39.9c-24.4,7.1-49.3,6-71.6-1.8c-0.4-0.1-0.8-0.3-1.3-0.5
		c-13.2-4.7-25.5-11.8-36.2-20.8l60.7-63.3c7,4,15.6,5.3,24,2.9c8.4-2.4,15-8.1,18.8-15.3l85.2,20.9
		C129.4,329.7,122.8,342.2,114.2,353.3z M138.9,287c-0.3,5-0.8,9.9-1.7,14.7L52,280.9c0-2.8-0.4-5.7-1.2-8.5
		c-4.1-14-17.1-22.9-31-22.3l-24.5-84.2c22-4.9,44.2-3.3,64.3,3.6c0.4,0.1,0.8,0.3,1.3,0.5c22.5,8.1,42.3,22.9,56.3,42.7
		c0.9,1.3,1.8,2.6,2.7,3.9c6.2,9.5,11.1,20,14.4,31.5s4.8,23,4.7,34.3C139,283.9,139,285.5,138.9,287z"/>
</g>
</svg>
