<?xml version="1.0" encoding="utf-8"?>
<svg version="1.1" id="Calque_1" xmlns="http://www.w3.org/2000/svg" xmlns:xlink="http://www.w3.org/1999/xlink" x="0px" y="0px"
	 viewBox="0 0 960 960" style="enable-background:new 0 0 960 960;" xml:space="preserve">
	
<style type="text/css">
	.st0{fill:#C1C1C1;}
	.st1{fill:#E6E6E6;}
	.st2{fill:#233D77;}
	.st3{fill:#383F45;}
	.st4{fill:#FBC39D;}
	.st5{fill:#F9AC7F;}
	.st6{fill:#D2D3D5;}
	.st7{fill:#FFFFFF;}
	.st8{fill:#EDEDED;}
	.st9{fill:#516694;}
	.st10{fill:#2E6CE8;}
	.st11{fill:#C2C2C2;}
	.st12{fill:#111110;}
</style>
<g>
	<g>
		<path class="st0" d="M162.2,797.4H48.7c-2,0-3.6,1.6-3.6,3.6v86.1c0,25.1,20.3,45.4,45.4,45.4h30c25.1,0,45.4-20.3,45.4-45.4V801
			C165.8,799,164.2,797.4,162.2,797.4z"/>
		<path class="st0" d="M148.5,917.7c25.6-14.5,69.5-57.1,62.2-87.2c-2-8-6.9-14.1-14.2-17.5c-17-7.9-41.3,1.6-44,2.7l8.1,16.9
			c5.9-2.4,20.2-6.3,26.9-3.1c1.4,0.6,2.9,1.7,3.7,5c4.3,17.5-30.1,54.4-53.2,67.4L148.5,917.7z"/>
	</g>
	<g id="vape">
	<path id="vaper" class="st1" d="M117.1,770.4c0.4,0.9,0.5-0.3,0.8-1.1l0.7-2.7c0.4-1.9,0.7-3.8,1-5.8c0.5-4,0.8-8.2,0.6-12.5
		c-0.2-8.6-2.1-17.5-5.5-25.7c-3.5-8.1-8.5-15.1-14-20.4c-2.8-2.8-5.7-5-8.6-7l-7.1-4.8c-8.3-5.9-15.9-13.1-21-20.9
		c-2.6-3.8-4.4-7.8-5.2-11c-0.9-3.2-0.8-5.3-0.4-6.7c0.2-0.8,0.5-1.5,0.9-2.3c0.7-1.2,1.2-3,2.3-4.5c1.7-3.2,4.3-6,6.8-8.8
		c5.4-5.2,11.8-8.5,18.2-9.5c6.5-1,13.2,0.2,19.9,3.6c3.3,1.8,6.7,3.6,10,6.5c1.7,1.3,3.3,2.5,4.9,4.2c1.6,1.6,3.3,3.1,5.5,3.5
		l6.7,1.2c14.6,2.7,28.1-10.9,30.1-30.2c1.1-10.5-1.5-20.7-6.4-28.2c-2.2-3.4-5.1-5.7-8-7.9c-2.8-2.3-6-4.1-9.1-6
		c-6.1-3.9-12.9-6.7-19.7-9.1c-13.8-4.5-29.1-5.1-43.5-0.4c-14.5,4.7-27.8,14.4-38.5,27.9c-5.2,7.1-10,14.6-13.6,23.8
		c-2,4.4-3.3,9.3-4.8,14.6c-1.4,5.8-2.3,12-2.4,18.4c-0.2,12.8,2.8,24.8,7,34.1c4.2,9.4,9.5,16.3,14.9,21.9
		c10.8,11.3,22.2,18,33.5,23.1l4.3,1.8l2.1,0.8l1.5,0.5c2,0.6,4,1.4,5.7,2.4c3.6,1.9,7.1,4,9.9,7.4c3,3.2,5.7,7.3,7.9,12.6
		c1.1,2.6,2.2,5.5,3,8.5c0.5,1.5,0.9,3.1,1.3,4.8l0.6,2.6c0.3,1,0.3,1.6,0.9,4.2c0.6,2.5,2.6,3.8,4.5,3
		C116.7,775.5,117.7,772.8,117.1,770.4z"/>
	<path id="vaper2" opacity="0" class="st1" d="M118.8,767.2c5.8-14.3,8.4-28.8,8.6-43.3c0.2-14.5-2-29-5.7-43.3C114,648,92,621,81,590
		c-6-16,1-33,13-45c12-11,30-19,45-11c16,7,23,31,44,28c16-2,27-17,29-33c1-16-4-32-15-42c-33-32-87-32-123-4
		c-62,48-59,138-22.8,200.1c6.6,11.5,14.6,22.4,23.9,32.5s20,19.3,32,27.4c10,7,1,21,6,32c1-1,2-1,2.9-0.9
		C117.9,773.2,119.2,770.1,118.8,767.2z"/>
	</g>
</g>
<g>
	<path class="st2" d="M706.3,441.3H437.7c-11.7,0-21.3-9.5-21.3-21.3V200.6h309.2V422C725.7,432.7,717,441.3,706.3,441.3z"/>
	<path class="st3" d="M812,682.6l-467.5-7.9V625c0-81.2,99.8-156.9,198-156.9h73.7c87.2,0,195.8,76.3,195.8,148.4V682.6z"/>
	<path class="st4" d="M601.8,365.2h-59.5c-12,0-21.8,9.8-21.8,21.8v93.4c0,28.5,23.1,51.5,51.5,51.5c28.5,0,51.5-23.1,51.5-51.5
		v-93.4C623.6,374.9,613.8,365.2,601.8,365.2z"/>
	<path class="st5" d="M520.5,467.3c0,0,4.2,30.4,51.5,30.4c47.4,0,51.6-30.4,51.6-30.4H520.5z"/>
	<ellipse class="st5" cx="720.1" cy="281.9" rx="32.6" ry="33.8"/>
	<ellipse class="st5" cx="424" cy="281.9" rx="32.6" ry="33.8"/>
	<path class="st4" d="M560.2,477.5l-0.3,0.3c4,0.3,8,0.6,12.1,0.6l0,0c12.3,0,24.2-1.6,35.6-4.6c0-0.1,0.1-0.2,0.1-0.3
		c63-16.5,109.6-75.8,109.6-146.4v-177c0-83.4-65-70.1-145.3-70.1l0,0c-80.2,0-145.3-13.3-145.3,70.1v177
		C426.7,406.3,485.5,471.2,560.2,477.5z"/>
	<path d="M698.7,268.8v47.8h-62.3c0,0-12.8-34.5-64.5-34.5c-51.7,0-64.5,34.5-64.5,34.5h-62.3v-47.8c0-18.8-6.9-25-18.6-27.1V327
		c0,79.3,58.7,144.2,133.4,150.5l-0.3,0.3c4,0.3,8,0.6,12.1,0.6c4.1,0,8.1-0.2,12.1-0.6l-0.3-0.3c74.7-6.3,133.4-71.2,133.4-150.5
		v-85.3C705.6,243.8,698.7,250,698.7,268.8z"/>
	<path class="st1" d="M527.1,337.3h87.4c0,0-7.7,34.3-43.7,34.3S527.1,337.3,527.1,337.3z"/>
	<path class="st0" d="M933.3,932.5H215.6c-3.9,0-7.1-3.2-7.1-7.1v-37.7c0-3.9,3.2-7.1,7.1-7.1h717.7c3.9,0,7.1,3.2,7.1,7.1v37.7
		C940.4,929.3,937.2,932.5,933.3,932.5z"/>
	<path class="st6" d="M876.1,932.5H268.6c-5,0-9.1-4.1-9.1-9.1V554.7c0-5,4.1-9.1,9.1-9.1h607.5c5,0,9.1,4.1,9.1,9.1v368.7
		C885.2,928.4,881.2,932.5,876.1,932.5z"/>
	<path class="st7" d="M564.7,782.8c-24.1,0-43.7-19.6-43.7-43.7s19.6-43.7,43.7-43.7s43.7,19.6,43.7,43.7S588.8,782.8,564.7,782.8z"
		/>
	<path class="st5" d="M574.9,302.3h-8.4c-9.9,0-17.6-8.7-16.4-18.6l4.2-33.7c1-8.3,8.1-14.5,16.4-14.5l0,0c8.3,0,15.4,6.2,16.4,14.5
		l4.2,33.7C592.5,293.6,584.8,302.3,574.9,302.3z"/>
	<g>
		<path class="st8" d="M591.7,37.1l-48.2,0c-1.9,0-3.4-1.5-3.4-3.4l0-18.3c0-1.9,1.5-3.4,3.4-3.4l48.2,0c1.9,0,3.4,1.5,3.4,3.4
			l0,18.3C595.1,35.5,593.6,37.1,591.7,37.1z"/>
		<path class="st9" d="M416.4,200.6l309.2-0.2l0-36.5c0-74.9-60.8-135.7-135.8-135.6l-37.8,0c-74.9,0-135.7,60.8-135.6,135.8
			L416.4,200.6z"/>
		<path d="M612,108.4l-86.2,0c-6.5,0-11.7,5.2-11.7,11.7l0,59.2l109.6-0.1l0-59.2C623.7,113.6,618.5,108.4,612,108.4z"/>
		<path class="st10" d="M516.1,156.9l108-0.1l0,36.3l-108,0.1c-10,0-18.1-8.1-18.1-18.1l0,0C498,165.1,506.1,156.9,516.1,156.9z"/>
		<circle class="st11" cx="524.8" cy="175.8" r="8.8"/>
		<circle class="st9" cx="524.8" cy="175.8" r="8.8"/>
		<circle class="st9" cx="561" cy="175.7" r="8.8"/>
		<circle class="st9" cx="597.3" cy="175.7" r="8.8"/>
	</g>
	<circle class="st12" cx="501.6" cy="235.5" r="13.4"/>
	<circle class="st12" cx="635.1" cy="235.5" r="13.4"/>
	<path d="M624.1,156.9c0,0,26.4-15.9,24.4-42.4l-34,9.7l7.2-29.4l-30.2,31.1L624.1,156.9z"/>
</g>
</svg>
