<?xml version="1.0" encoding="utf-8"?>
<!-- Generator: Adobe Illustrator 19.1.1, SVG Export Plug-In . SVG Version: 6.00 Build 0)  -->
<svg version="1.1" id="Layer_1" xmlns="http://www.w3.org/2000/svg" xmlns:xlink="http://www.w3.org/1999/xlink" x="0px" y="0px"
	 viewBox="-205 75.4 547.8 410.6" style="enable-background:new -205 75.4 547.8 410.6;" xml:space="preserve">
<style type="text/css">
	.st0{fill:#FFFFFF;}
</style>
<path class="st0" d="M252.5,317.6c-17.7,0.1-33.2,4.4-46.1,10.7c-4.7-9.4-9.5-17.7-10.3-23.9c-0.9-7.2-2-11.5-0.9-20.1
	c1.1-8.5,6.1-20.7,6-21.6c-0.1-0.9-1.1-5.3-11.3-5.4c-10.2-0.1-19,2-20.1,4.6c-1,2.7-3,8.8-4.3,15.1c-1.8,9.3-20.4,42.4-31.1,59.8
	c-3.4-6.8-6.4-12.7-7.1-17.5c-0.9-7.2-2-11.5-0.9-20.1c1.1-8.5,6.1-20.7,6-21.6c-0.1-0.9-1.1-5.3-11.3-5.4s-19,2-20.1,4.6
	c-1,2.7-2.1,9-4.3,15.1s-26.9,61.5-33.4,75.8c-3.3,7.3-6.2,13.2-8.3,17.2l0,0c0,0-0.1,0.3-0.4,0.7c-1.8,3.4-2.8,5.3-2.8,5.3
	s0,0,0,0.1c-1.4,2.5-2.9,4.8-3.6,4.8c-0.6,0-1.6-6.7,0.2-15.8c3.7-19.2,12.5-49.1,12.4-50.2c0-0.6,1.7-5.8-5.8-8.5
	c-7.2-2.7-9.8,1.8-10.5,1.8s-1.1,1.6-1.1,1.6s8.1-33.6-15.4-33.6c-14.7,0-34.9,16.1-45,30.6c-6.3,3.4-19.8,10.8-34.2,18.7
	c-5.5,3.1-11.1,6.1-16.4,9c-0.4-0.4-0.7-0.8-1.1-1.2c-28.4-30.4-81-51.8-78.8-92.6c0.8-14.9,5.9-53.9,101-101.2
	c78.2-38.5,140.4-27.9,151.2-4.2C120.3,184.2,71.6,247-9.2,256.1c-30.8,3.4-47-8.5-51.1-12.9c-4.3-4.6-4.9-4.9-6.5-4
	c-2.6,1.4-0.9,5.6,0,8c2.4,6.3,12.4,17.5,29.2,22.9c14.9,4.8,51,7.5,94.7-9.4c48.9-18.9,87.2-71.6,76-115.7
	c-11.2-44.8-85.5-59.5-155.8-34.5c-41.8,14.9-87.1,38.3-119.7,68.7c-38.7,36.2-44.9,67.7-42.4,80.9c9,46.8,73.6,77.3,99.4,99.8
	c-1.3,0.7-2.5,1.4-3.5,2c-12.9,6.4-62.1,32.1-74.4,59.3c-13.9,30.8,2.2,52.9,12.9,55.9c33.2,9.2,67.2-7.3,85.5-34.6
	s16.1-62.8,7.6-79c-0.1-0.2-0.2-0.4-0.4-0.6c3.3-2,6.8-4,10.1-5.9c6.6-3.9,13.1-7.5,18.7-10.5c-3.2,8.6-5.5,18.9-6.6,33.8
	c-1.4,17.5,5.8,40.1,15.1,49c4.2,3.9,9.1,4,12.3,4c11,0,15.9-9.1,21.4-19.9c6.7-13.2,12.7-28.5,12.7-28.5s-7.5,41.4,12.9,41.4
	c7.4,0,15-9.7,18.3-14.6c0,0.1,0,0.1,0,0.1s0.2-0.3,0.6-0.9c0.7-1.2,1.2-2,1.2-2s0-0.1,0-0.2c3-5.2,9.7-17,19.6-36.6
	c12.8-25.3,25.2-56.8,25.2-56.8s1.1,7.7,4.9,20.5c2.2,7.5,6.9,15.8,10.6,23.8c-3,4.2-4.8,6.5-4.8,6.5s0,0,0.1,0.1
	c-2.4,3.2-5,6.6-7.9,9.9c-10.1,12.1-22.2,25.9-23.9,29.9c-2,4.7-1.5,8.2,2.2,11c2.7,2,7.5,2.3,12.4,2c9.1-0.7,15.5-2.9,18.7-4.3
	c4.9-1.8,10.7-4.5,16.1-8.5c9.9-7.3,16-17.8,15.4-31.7c-0.3-7.6-2.8-15.2-5.9-22.4c0.9-1.3,1.8-2.6,2.7-3.9
	c15.7-22.9,27.9-48.1,27.9-48.1s1.1,7.7,4.9,20.5c1.9,6.5,5.7,13.6,9,20.4c-14.8,12-23.9,25.9-27.1,35c-5.9,16.9-1.3,24.5,7.3,26.3
	c3.9,0.8,9.5-1,13.6-2.8c5.2-1.7,11.3-4.6,17.2-8.8c9.9-7.3,19.5-17.6,18.9-31.4c-0.3-6.3-2-12.5-4.3-18.6
	c12.5-5.2,28.7-8.1,49.3-5.7c44.2,5.2,52.9,32.8,51.3,44.4s-11,17.9-14,19.9s-4.1,2.6-3.8,4c0.4,2,1.9,2,4.5,1.6
	c3.6-0.7,23.2-9.4,24.1-30.7C324.5,347.1,298.5,317.3,252.5,317.6z M-88.5,432.6c-14.7,16-35.1,22-43.9,16.9
	c-9.5-5.5-5.8-29.1,12.3-46c11-10.3,25.1-19.9,34.5-25.7c2.1-1.3,5.3-3.2,9.1-5.5c0.7-0.4,1-0.6,1-0.6l0,0c0.7-0.5,1.5-0.9,2.2-1.4
	C-66.8,394.5-73.1,415.8-88.5,432.6z M18.3,360C13.2,372.4,2.5,404.3-4,402.5c-5.6-1.5-9-25.6-1.1-49.5c4-12,12.4-26.3,17.4-31.9
	c8-8.9,16.8-11.9,18.9-8.3C33.9,317.6,21.4,352.2,18.3,360z M106.4,402.1c-2.1,1.1-4.2,1.9-5.1,1.3c-0.7-0.4,0.9-1.9,0.9-1.9
	s11.1-11.9,15.4-17.3c2.5-3.2,5.5-6.9,8.6-11.1c0,0.4,0,0.8,0,1.2C126.3,388.7,112.5,398.2,106.4,402.1z M174.4,386.6
	c-1.6-1.1-1.3-4.8,4-16.4c2-4.6,6.9-12.2,15.1-19.5c0.9,3,1.6,5.9,1.5,8.5C194.9,377.1,182.1,383.8,174.4,386.6z"/>
</svg>
