<?xml version="1.0" encoding="utf-8"?>
<!-- Generator: Adobe Illustrator 19.1.1, SVG Export Plug-In . SVG Version: 6.00 Build 0)  -->
<svg version="1.1" id="Calque_1" xmlns="http://www.w3.org/2000/svg" xmlns:xlink="http://www.w3.org/1999/xlink" x="0px" y="0px"
	 viewBox="-229 31 500 500" style="enable-background:new -229 31 500 500;" xml:space="preserve">
<style type="text/css">
	.st0{fill:#FFFFFF;}
</style>
<path class="st0" d="M231.4,274.2c0-33.1-26.8-59.9-59.9-59.9c23.4-23.4,23.4-61.4,0-84.8c-23.4-23.4-61.4-23.4-84.8,0
	c0-33.1-26.8-59.9-60-59.9s-60,26.8-60,59.9c-23.4-23.4-61.4-23.4-84.7,0c-23.4,23.4-23.4,61.4,0,84.8c-33.2,0-60,26.8-60,59.9
	c0,0.6,0,1.2,0.1,1.8v181.3c0,15.3,7.6,22.9,22.9,22.9h363.5c15.3,0,22.9-7.6,22.9-22.9V274.2L231.4,274.2L231.4,274.2z
	 M-98.8,353.9c0.7,1.2,1.6,2.2,2.7,3.2c4,4,9.6,6.4,15.7,6.4v0.1c14.6,0,27.8,5.9,37.3,15.2c0.2,0.2,0.3,0.3,0.5,0.5
	c9.7,9.7,15.7,23.1,15.7,37.7c0,6.8-1.3,13.4-3.6,19.3c-7.7,20-27.1,34.2-49.8,34.2c-29.5,0-53.4-23.9-53.4-53.5h14.1h17.2
	c0,6.3,2.7,12,6.9,16c3.9,3.8,9.3,6.1,15.3,6.1c4,0,7.8-1.1,11.1-2.9c6.6-3.8,11.1-11,11.1-19.1c0-4.1-1.1-8-3.1-11.3
	c-0.9-1.6-2.1-3-3.4-4.4c-3.9-4-9.5-6.5-15.6-6.5c-9.2,0-17.8-2.3-25.3-6.3c-4.7-2.5-8.9-5.7-12.5-9.3c-6.3-6.3-11.1-14.3-13.6-23.2
	c-1.3-4.7-2-9.5-2-14.6c0-3.1,0.3-6.2,0.8-9.2c1.6-9.7,6-18.6,12.2-25.7c9.8-11.4,24.3-18.5,40.4-18.5c11.1,0,21.4,3.4,29.9,9.2
	c4.3,2.9,8.2,6.4,11.4,10.4c7.5,9.3,12,21,12,33.8h-31.5c0-4.2-1.2-8.1-3.2-11.4c-3.8-6.4-10.9-10.7-19-10.7
	c-12.2,0-22.2,9.9-22.2,22.2C-102.6,346-101.2,350.3-98.8,353.9z M55.7,404.4l-8.2,39.3l-5.5,26.7H10.8L5.1,443l-7.8-37.7
	l-11.9-57.3l-12.5-60H4.3l22.2,106.9l22.2-106.9h31.3l-12.4,59.5L55.7,404.4z M186.8,392.7V417c0,29.6-23.9,53.5-53.4,53.5
	c-22.3,0-41.5-13.7-49.5-33.2C81.4,431,80,424.1,80,417v-57.2v-18.4h-0.1c0-13,4.7-24.9,12.4-34.3c3.2-3.8,7-7.2,11.1-10.1
	c8.5-5.8,18.9-9.2,29.9-9.2c16.2,0,30.8,7.2,40.6,18.6c6.2,7.2,10.5,16,12.2,25.8c0.5,2.9,0.7,6,0.7,9.1h-9.1h-22.3
	c0-12.3-9.9-22.2-22.2-22.2c-7.8,0-14.7,4.1-18.7,10.3c-2.2,3.4-3.4,7.4-3.4,11.8v62.2V417c0,8.2,4.4,15.2,10.9,19.1
	c3.3,1.9,7.1,3.1,11.2,3.1c5.8,0,11-2.2,14.9-5.8c4.5-4,7.2-9.9,7.2-16.3V417v-21.5v-0.6h-22.2v-31.3h25.6h27.9V392.7L186.8,392.7z
	 M203.9,274.2h-354.4l0,0c0-17.9,14.6-32.4,32.5-32.4c8.9,0,17,3.7,23,9.5h66.3l-47-46.9c-8.2,0-16.7-3.2-23-9.5
	c-12.7-12.7-12.7-33.2,0-45.9c12.7-12.7,33.2-12.7,45.9,0c6.3,6.3,9.5,14.7,9.5,22.9l46.9,47v-66.5c-5.9-5.9-9.5-14-9.5-23
	C-5.8,111.5,8.7,97,26.7,97s32.5,14.5,32.5,32.4c0,9.1-3.8,17.1-9.5,23v66.3l47-47c0-8.3,3.2-16.6,9.4-22.9
	c12.7-12.7,33.3-12.7,45.9,0c12.7,12.6,12.7,33.2,0,45.9c-6.3,6.3-14.7,9.5-23,9.5l-46.9,46.9h66.3c6-5.9,14-9.5,23-9.5
	C189.4,241.7,203.9,256.3,203.9,274.2L203.9,274.2z"/>
</svg>
