<?xml version="1.0" encoding="utf-8"?>
<!-- Generator: Adobe Illustrator 19.1.1, SVG Export Plug-In . SVG Version: 6.00 Build 0)  -->
<svg version="1.1" id="Calque_1" xmlns="http://www.w3.org/2000/svg" xmlns:xlink="http://www.w3.org/1999/xlink" x="0px" y="0px"
	 viewBox="0 0 1920 900" style="enable-background:new 0 0 1920 900;" xml:space="preserve">
<style type="text/css">
	.st0{fill:#1A1A1A;}
	.st1{fill:url(#SVGID_1_);}
	.st2{fill:#333333;}
</style>
<path class="st0" d="M1920,262C1291.5,106.6,628.5,106.6,0,262c-6-19.8-12-39.5-17.9-59.3c640.2-158.3,1315.7-158.3,1955.9,0
	C1932,222.5,1926,242.2,1920,262z"/>
<radialGradient id="SVGID_1_" cx="879.3779" cy="891.2736" r="1283.8694" gradientTransform="matrix(1.360213e-002 -0.9999 1.9208 2.612997e-002 -844.58 1747.2811)" gradientUnits="userSpaceOnUse">
	<stop  offset="0" style="stop-color:#000000"/>
	<stop  offset="0.2373" style="stop-color:#020202"/>
	<stop  offset="0.3228" style="stop-color:#090909"/>
	<stop  offset="0.3837" style="stop-color:#141414"/>
	<stop  offset="0.433" style="stop-color:#252525"/>
	<stop  offset="0.4752" style="stop-color:#3B3B3B"/>
	<stop  offset="0.5126" style="stop-color:#575757"/>
	<stop  offset="0.5464" style="stop-color:#777777"/>
	<stop  offset="0.5764" style="stop-color:#9B9B9B"/>
	<stop  offset="0.6027" style="stop-color:#C2C2C2"/>
	<stop  offset="0.6364" style="stop-color:#989898"/>
	<stop  offset="0.6749" style="stop-color:#707070"/>
	<stop  offset="0.716" style="stop-color:#4D4D4D"/>
	<stop  offset="0.7593" style="stop-color:#313131"/>
	<stop  offset="0.8057" style="stop-color:#1B1B1B"/>
	<stop  offset="0.8566" style="stop-color:#0C0C0C"/>
	<stop  offset="0.9153" style="stop-color:#030303"/>
	<stop  offset="1" style="stop-color:#000000"/>
</radialGradient>
<path class="st1" d="M1920,255C1291.5,99.6,628.5,99.6,0,255c-6-19.8-12-39.5-17.9-59.3c640.2-158.3,1315.7-158.3,1955.9,0
	C1932,215.5,1926,235.2,1920,255z"/>
<path d="M0,884.5c-5.1-15.8-10.2-31.7-15.3-47.5c-0.9,0.2-1.8,0.4-2.7,0.7C-12,857.8-6,877.9,0,898c628.5-158.2,1291.5-158.2,1920,0
	c6-20.1,12-40.2,17.9-60.3c-0.9-0.2-1.8-0.4-2.7-0.7c-5.1,15.8-10.2,31.7-15.3,47.5C1291.5,738.1,628.5,738.1,0,884.5z"/>
<path class="st0" d="M1935.3,846.6c0.9-2.3,1.8-4.7,2.7-7c-1-0.2-2.1-0.4-3.1-0.6c-1,2.3-1.9,4.6-2.9,6.9
	C1933.1,846.1,1934.2,846.3,1935.3,846.6z"/>
<path class="st0" d="M-14.8,839c-1,0.2-2.1,0.4-3.1,0.6c0.9,2.3,1.8,4.7,2.7,7c1.1-0.2,2.2-0.5,3.3-0.7
	C-12.9,843.6-13.9,841.3-14.8,839z"/>
<path class="st0" d="M1920,870.2c-628.5-133.9-1291.5-133.9-1920,0c-4-11.3-8-22.7-12-34c-1.1,0.3-2.2,0.5-3.3,0.8
	c5.1,15.8,10.2,31.7,15.3,47.5c628.5-146.4,1291.5-146.4,1920,0c5.1-15.8,10.2-31.7,15.3-47.5c-1.1-0.3-2.2-0.5-3.3-0.8
	C1928,847.5,1924,858.9,1920,870.2z"/>
<path class="st2" d="M1937.2,831.4c-1,2.5-2.1,5-3.1,7.4c0.3,0.1,0.5,0.1,0.8,0.1c1-2.5,2.1-5,3.1-7.4
	C1937.7,831.5,1937.4,831.4,1937.2,831.4z"/>
<path class="st2" d="M-17.2,831.4c-0.3,0-0.5,0.1-0.8,0.1c1,2.5,2.1,5,3.1,7.4c0.3-0.1,0.5-0.1,0.8-0.1
	C-15.1,836.3-16.1,833.9-17.2,831.4z"/>
<path class="st2" d="M1931.2,845.7c0.3,0.1,0.5,0.1,0.8,0.2c1-2.3,1.9-4.6,2.9-6.9c-0.3-0.1-0.5-0.1-0.8-0.1
	C1933.1,841.1,1932.1,843.4,1931.2,845.7z"/>
<path class="st2" d="M-11.2,845.7c-1-2.3-1.9-4.6-2.9-6.9c-0.3,0.1-0.5,0.1-0.8,0.1c1,2.3,1.9,4.6,2.9,6.9
	C-11.7,845.8-11.4,845.8-11.2,845.7z"/>
<path class="st2" d="M0,867.8c-3.7-10.6-7.5-21.2-11.2-31.9c-0.3,0.1-0.5,0.1-0.8,0.2c4,11.3,8,22.7,12,34
	c628.5-133.9,1291.5-133.9,1920,0c4-11.3,8-22.7,12-34c-0.3-0.1-0.5-0.1-0.8-0.2c-3.7,10.6-7.5,21.2-11.2,31.9
	C1291.5,733.9,628.5,733.9,0,867.8z"/>
</svg>
