<?xml version="1.0" encoding="utf-8"?>
<!-- Generator: Adobe Illustrator 19.1.1, SVG Export Plug-In . SVG Version: 6.00 Build 0)  -->
<svg version="1.1" id="Calque_1" xmlns="http://www.w3.org/2000/svg" xmlns:xlink="http://www.w3.org/1999/xlink" x="0px" y="0px"
	 viewBox="480 -220 1920 1000" style="enable-background:new 480 -220 1920 1000;" xml:space="preserve">
<style type="text/css">
	.st0{fill:#FFFFFF;enable-background:new    ;}
	.st1{fill:#FFFFFF;}
</style>
<path class="st0" d="M171.5,1510.1c0,7.9,0,15.8,0,23.7h0c0,235.3,0,470.5,0,705.8h0c0,7.9,0,15.8,0,23.7
	c769.1-286.2,1538.2,286.2,2307.2,0c0-7.9,0-15.8,0-23.7c0-9,0-18.1,0-27.1c0-217.2,0-434.4,0-651.6c0-9,0-18.1,0-27.1
	c0-7.9,0-15.8,0-23.7C1709.6,1796.3,940.5,1223.9,171.5,1510.1z"/>
<path class="st1" d="M212.9,128.9l-7.1-0.2c0.3,11.3,0.8,22.2,1.3,32.8c2.1,0.2,4.1,0.5,6.2,0.8C212,151,211.9,139.8,212.9,128.9z"
	/>
<path class="st1" d="M2954.2,283.9l-0.1,0c0.2-1.8,0.4-3.6,0.6-5.4c2.8-31.5-5.7-61.3-22-85.1c-19.7-28.8-50.9-48.8-87.3-52.3
	c-31.7-3.1-61.7,6.8-85.2,25.5c-25.8-59.9-80.9-104-148.1-110.6c-23.9-2.3-47.1,0.3-68.7,7.1c-23.6-22.4-54.2-37.3-88.5-40.6
	c-19.2-1.9-37.8,0-55.4,5.1c-3.7-62.1-50.3-113.8-111.7-119.8c-27.1-2.7-53,4-74.7,17.5c-5.5-60.2-51.4-109.8-111.4-115.6
	c-67.9-6.7-128.2,45.2-134.5,115.9c-0.1,0.9-0.2,1.8-0.2,2.8c-8.4-2.6-17.1-4.3-26.2-5.2c-70.2-6.9-133,42.1-147.8,112
	c-32.1-16.3-69.2-29.1-101.1,14.3c-37.1-49.4-84.3-40.5-101.3-36.7l-0.1,0c-0.4-2-0.8-4.1-1.3-6.2
	c-18.5-79.1-95.3-129.4-171.5-112.2c-36.3,8.2-65.9,30.2-85,59.4c-50.5-56.9-127.7-85.5-204.6-68.2c-27.3,6.2-52,17.6-73.5,33
	c-34.4-16.1-73.7-21.4-112.9-12.6c-21.9,4.9-41.9,13.9-59.4,25.9c-26.9-67.4-97.5-107.6-167.6-91.8c-31,7-57.2,23.9-76.3,46.7
	c-28.2-64.6-97.2-102.7-165.7-87.3C395-183.1,347.3-103.5,366.1-22.9c0.2,1,0.5,2.1,0.8,3.1c-10.2,0.2-20.6,1.5-30.9,3.8
	C266.7-0.3,218.7,59.5,212.9,128.9c-0.9,10.9-0.8,22.1,0.4,33.4c-2.1-0.3-4.1-0.6-6.2-0.8C221,432.9,301.7,453,324.5,455.9l0.1,0
	c-0.2,1.1-0.3,2.2-0.5,3.3c-5.1,42.1,23.6,80.6,64.1,85.7c19.3,2.5,37.7-3,52.4-14c14.6,36.9,47.4,64.8,88.2,70
	c14.5,1.9,28.7,0.7,42-3.1c14,14.1,32.3,23.7,53.2,26.4c11.6,1.5,23.1,0.7,33.8-2.1c1.1,37.9,28.6,70.3,65.9,75
	c16.5,2.1,32.3-1.5,45.8-9.3c2.3,36.8,29.3,67.8,65.8,72.5c41.2,5.3,78.9-25.2,84.1-68.2c0.1-0.6,0.1-1.1,0.2-1.7
	c5.1,1.7,10.4,3,15.8,3.7c42.6,5.5,81.8-23.3,92.1-65.5c33.2,18.1,75.1,9.7,99.3-22c4.6-6.1,8.3-12.6,11.1-19.5
	c4.1,16.9,13.4,32.6,27.6,44.3c34.4,28.4,84.5,22.4,111.9-13.5c10.8-14.1,16.4-30.8,17.2-47.5c19.7,9.3,43.5,4.9,58.9-11.7
	c2.7,0.6,5.4,1,8.1,1.3c21.7,2.5,42.5-2.9,58.9-13.8c16.6,37,53.6,65,99.6,70.4c16.3,1.9,32.3,0.8,47.3-2.9
	c15.8,14.1,36.5,23.8,59.9,26.6c13.1,1.5,26,0.8,38.1-2c1.4,37.9,32.5,70.4,74.4,75.3c18.5,2.2,36.4-1.4,51.6-9.1
	c2.7,36.8,33.3,67.9,74.3,72.7c46.5,5.4,88.7-24.9,94.4-67.9c0.1-0.6,0.1-1.1,0.2-1.7c5.7,1.7,11.7,3,17.8,3.7
	c48,5.6,92-23,103.4-65.2c37.4,18.2,84.6,10,111.7-21.7c5.2-6.1,9.3-12.6,12.4-19.4c4.7,16.9,15.2,32.7,31.2,44.4
	c38.9,28.6,95.3,22.7,126-13.1c12.1-14.1,18.4-30.7,19.2-47.4c13.7,5.8,29.2,6.4,43.1,2.1c17,27.9,45.4,47.9,79.4,52.3
	c14.5,1.9,28.7,0.7,42-3.1c14,14.1,32.3,23.7,53.2,26.4c11.6,1.5,23.1,0.7,33.8-2.1c1.1,37.9,28.6,70.3,65.9,75
	c16.5,2.1,32.3-1.5,45.8-9.3c2.3,36.8,29.3,67.8,65.8,72.5c41.2,5.3,78.9-25.2,84.1-68.2c0.1-0.6,0.1-1.1,0.2-1.7
	c5.1,1.7,10.4,3,15.8,3.7c42.6,5.5,81.8-23.3,92.1-65.5c33.2,18.1,75.1,9.7,99.3-22c4.6-6.1,8.3-12.6,11.1-19.5
	c4.1,16.9,13.4,32.6,27.6,44.3c3.9,3.2,7.9,5.9,12.2,8.3C3108.7,313.1,2989.3,287.4,2954.2,283.9z"/>
</svg>
