<?xml version="1.0" encoding="utf-8"?>
<!-- Generator: Adobe Illustrator 19.1.1, SVG Export Plug-In . SVG Version: 6.00 Build 0)  -->
<svg version="1.1" id="Calque_1" xmlns="http://www.w3.org/2000/svg" xmlns:xlink="http://www.w3.org/1999/xlink" x="0px" y="0px"
	 viewBox="-351 153 256 255" style="enable-background:new -351 153 256 255;" xml:space="preserve">
<style type="text/css">
	.st0{fill:#FFFFFF;}
</style>
<g>
	<path class="st0" d="M-327.4,280.5c0,41.3,24.1,77,58.8,93.9l-49.8-136.5C-324.2,251-327.4,265.3-327.4,280.5L-327.4,280.5z
		 M-152.6,275.3c0-12.9-4.7-21.9-8.6-28.8c-5.2-8.6-10.2-15.8-10.2-24.4c0-9.6,7.3-18.5,17.6-18.5c0.5,0,0.9,0.1,1.3,0.1
		c-18.6-17-43.3-27.4-70.5-27.4c-36.5,0-68.5,18.7-87.2,47.1c2.5,0.1,4.8,0.1,6.7,0.1c10.9,0,27.9-1.3,27.9-1.3
		c5.6-0.3,6.3,7.9,0.7,8.6c0,0-5.6,0.7-11.9,1l38,113.1l22.8-68.5l-16.2-44.6c-5.6-0.3-11-1-11-1c-5.6-0.3-5-9,0.7-8.6
		c0,0,17.3,1.3,27.5,1.3c10.9,0,27.9-1.3,27.9-1.3c5.6-0.3,6.3,7.9,0.7,8.6c0,0-5.6,0.7-11.9,1l37.7,112.3l10.4-34.8
		C-156,294.5-152.6,284.1-152.6,275.3L-152.6,275.3z M-221.2,289.7l-31.3,91.1c9.4,2.8,19.3,4.3,29.5,4.3c12.1,0,23.9-2.1,34.6-5.9
		c-0.3-0.5-0.6-1-0.8-1.4L-221.2,289.7L-221.2,289.7z M-131.4,230.4c0.5,3.3,0.7,6.9,0.7,10.7c0,10.6-2,22.5-7.9,37.4l-31.9,92.2
		c31-18.1,51.9-51.7,51.9-90.2C-118.6,262.4-123.3,245.3-131.4,230.4L-131.4,230.4z M-223,158.8c-67.1,0-121.7,54.6-121.7,121.7
		s54.6,121.7,121.7,121.7s121.7-54.6,121.7-121.7S-155.9,158.8-223,158.8L-223,158.8z M-223,396.7c-64,0-116.2-52.1-116.2-116.2
		S-287,164.3-223,164.3s116.2,52.1,116.2,116.2C-106.8,344.5-159,396.7-223,396.7L-223,396.7z"/>
</g>
</svg>
